M48
METRIC,LZ,000.000
;FILE_FORMAT=3:3
;TYPE=PLATED
;Layer: PTH_Through
;EasyEDA v6.5.22, 2023-01-17 12:05:17
;b103a448d6604d23990311a0c4fa42b9,79949195797447f9ac56d6811569d7a0,10
;Gerber Generator version 0.2
;Holesize 1 = 0.711 mm
T01C0.711
;Holesize 2 = 0.712 mm
T02C0.712
;Holesize 3 = 0.758 mm
T03C0.758
;Holesize 4 = 0.800 mm
T04C0.800
;Holesize 5 = 0.914 mm
T05C0.914
;Holesize 6 = 0.915 mm
T06C0.915
;Holesize 7 = 1.000 mm
T07C1.000
;Holesize 8 = 1.016 mm
T08C1.016
;Holesize 9 = 1.380 mm
T09C1.380
;Holesize 10 = 1.381 mm
T10C1.381
%
G05
G90
T01
X016256Y015803
X011684Y010342
T02
X016256Y013264
X016256Y010724
X009144Y010343
X006604Y010343
T03
X-008255Y017806G85X-008255Y017801
X-010795Y017806G85X-010795Y017801
X-013335Y017806G85X-013335Y017801
X-015875Y017806G85X-015875Y017801
X-015875Y009996G85X-015875Y009991
X-013335Y009996G85X-013335Y009991
X-010795Y009996G85X-010795Y009991
X-008255Y009996G85X-008255Y009991
T04
X006426Y018978
X011608Y018979
X009017Y018979
T05
X-014224Y021717
X-014224Y028297
X000000Y000000
X000000Y006580
X-005080Y000000
X-005080Y006580
X011104Y030028
X004525Y030028
X022606Y013589
X022606Y020169
X019431Y007747
X019431Y014327
X015875Y-000127
X015875Y006453
X024284Y033329
X011084Y033329
X017454Y-037409
X010875Y-037409
X-018796Y027991
X000758Y033456
X020193Y-048966
T06
X017684Y033330
X004484Y033330
X017653Y023424
X017653Y030024
X-018796Y021392
X-005842Y033457
X026347Y-043505
T07
X001028Y024821
X-004572Y024821
X-010172Y024821
T08
X026289Y016184
X026289Y018725
X026289Y021265
X026289Y023805
X026289Y013645
X026289Y011105
X026289Y008565
X026289Y006025
X026289Y003485
X026289Y000945
X-021971Y014915
X-021971Y012375
X-021971Y009835
X-021971Y007295
X-021971Y004755
X-021971Y002215
X-021971Y-000326
X-021971Y-002865
X-021971Y-023185
X-021971Y-025725
X-021971Y-018105
X-021971Y-020645
X-021971Y-015565
X-021971Y-013025
X-021971Y-010485
X-021971Y-007945
X026347Y-025725
X026347Y-028265
X026347Y-030805
X026347Y-033345
X026347Y-035885
X026347Y-038425
X026347Y-040965
X020066Y-034742
X020066Y-037282
X020193Y-046426
X020193Y-043886
X020193Y-041346
X026289Y-051125
X-003429Y044379
X-005969Y044379
T09
X-010668Y039298G85X-010668Y039298
T10
X-010668Y036759G85X-010668Y036758
X-010668Y041839G85X-010668Y041838
M30
