G04 Layer: TopSolderMaskLayer*
G04 EasyEDA v6.5.22, 2023-01-17 12:05:17*
G04 b103a448d6604d23990311a0c4fa42b9,79949195797447f9ac56d6811569d7a0,10*
G04 Gerber Generator version 0.2*
G04 Scale: 100 percent, Rotated: No, Reflected: No *
G04 Dimensions in millimeters *
G04 leading zeros omitted , absolute positions ,4 integer and 5 decimal *
%FSLAX45Y45*%
%MOMM*%

%AMMACRO1*1,1,$1,$2,$3*1,1,$1,$4,$5*1,1,$1,0-$2,0-$3*1,1,$1,0-$4,0-$5*20,1,$1,$2,$3,$4,$5,0*20,1,$1,$4,$5,0-$2,0-$3,0*20,1,$1,0-$2,0-$3,0-$4,0-$5,0*20,1,$1,0-$4,0-$5,$2,$3,0*4,1,4,$2,$3,$4,$5,0-$2,0-$3,0-$4,0-$5,$2,$3,0*%
%ADD10C,1.6256*%
%ADD11C,1.6260*%
%ADD12MACRO1,0.1016X-1.035X-1.035X-1.035X1.035*%
%ADD13C,2.1720*%
%ADD14C,2.1717*%
%ADD15MACRO1,0.1016X0.633X0.633X0.633X-0.633*%
%ADD16C,1.3675*%
%ADD17C,1.3680*%
%ADD18O,2.2352000000000003X1.4732*%
%ADD19O,2.2360128X1.4740128000000001*%
%ADD20O,1.4732X2.2352000000000003*%
%ADD21O,1.4740128000000001X2.2360128*%
%ADD22MACRO1,0.102X-0.85X-0.85X-0.85X0.85*%
%ADD23C,1.8016*%
%ADD24C,1.9820*%
%ADD25C,1.9812*%
%ADD26C,1.8796*%
%ADD27C,1.8800*%
%ADD28C,1.7272*%
%ADD29C,1.7280*%

%LPD*%
D10*
G01*
X-1422400Y2171700D03*
G01*
X-1422400Y2829661D03*
G01*
X0Y0D03*
G01*
X0Y657961D03*
D11*
G01*
X-508000Y50D03*
D10*
G01*
X-508000Y657961D03*
D11*
G01*
X1110437Y3002762D03*
D10*
G01*
X452500Y3002762D03*
G01*
X2260600Y1358900D03*
G01*
X2260600Y2016861D03*
D11*
G01*
X1943100Y774750D03*
D10*
G01*
X1943100Y1432661D03*
D11*
G01*
X1587500Y-12649D03*
D10*
G01*
X1587500Y645261D03*
D11*
G01*
X2428392Y3332937D03*
D10*
G01*
X1768398Y3332962D03*
D11*
G01*
X1108405Y3332937D03*
D10*
G01*
X448411Y3332962D03*
D11*
G01*
X1745409Y-3740929D03*
G01*
X1087493Y-3740945D03*
D12*
G01*
X-1066800Y3675862D03*
D13*
G01*
X-1066800Y3929837D03*
D14*
G01*
X-1066800Y4183862D03*
D10*
G01*
X1765300Y2342362D03*
G01*
X1765300Y3002356D03*
G01*
X-1879600Y2139162D03*
D11*
G01*
X-1879600Y2799130D03*
D10*
G01*
X-584200Y3345662D03*
D11*
G01*
X75793Y3345637D03*
D15*
G01*
X-825500Y1780362D03*
D16*
G01*
X-1079500Y1780362D03*
G01*
X-1333500Y1780362D03*
D17*
G01*
X-1587500Y1780336D03*
D16*
G01*
X-1587500Y999363D03*
G01*
X-1333500Y999363D03*
G01*
X-1079500Y999363D03*
G01*
X-825500Y999363D03*
D10*
G01*
X102819Y2482062D03*
G01*
X-457200Y2482062D03*
G01*
X-1017193Y2482062D03*
D18*
G01*
X1625600Y1326362D03*
D19*
G01*
X1625600Y1580337D03*
D18*
G01*
X1625600Y1072362D03*
D20*
G01*
X914400Y1034262D03*
D21*
G01*
X1168400Y1034237D03*
D20*
G01*
X660400Y1034262D03*
D22*
G01*
X642593Y1897843D03*
D23*
G01*
X1160779Y1897862D03*
G01*
X901700Y1897862D03*
D24*
G01*
X2628894Y1618396D03*
D25*
G01*
X2628900Y1872462D03*
D26*
G01*
X2628900Y2126462D03*
G01*
X2628900Y2380462D03*
D25*
G01*
X2628900Y1364462D03*
G01*
X2628900Y1110462D03*
D26*
G01*
X2628900Y856462D03*
G01*
X2628900Y602462D03*
G01*
X2628900Y348462D03*
G01*
X2628900Y94462D03*
G01*
X-2197100Y1491462D03*
G01*
X-2197100Y1237462D03*
G01*
X-2197100Y983462D03*
G01*
X-2197100Y729462D03*
G01*
X-2197100Y475462D03*
G01*
X-2197100Y221462D03*
D27*
G01*
X-2197100Y-32562D03*
D26*
G01*
X-2197100Y-286537D03*
D25*
G01*
X-2197100Y-2318537D03*
G01*
X-2197100Y-2572537D03*
G01*
X-2197100Y-1810537D03*
G01*
X-2197100Y-2064537D03*
G01*
X-2197100Y-1556537D03*
G01*
X-2197100Y-1302537D03*
G01*
X-2197100Y-1048537D03*
G01*
X-2197100Y-794537D03*
D26*
G01*
X2634741Y-2572537D03*
G01*
X2634741Y-2826537D03*
G01*
X2634741Y-3080537D03*
G01*
X2634741Y-3334537D03*
G01*
X2634741Y-3588537D03*
G01*
X2634741Y-3842537D03*
G01*
X2634741Y-4096537D03*
D28*
G01*
X2634741Y-4350537D03*
D26*
G01*
X2006600Y-3474237D03*
G01*
X2006600Y-3728237D03*
D29*
G01*
X2019300Y-4896637D03*
D26*
G01*
X2019300Y-4642637D03*
G01*
X2019300Y-4388637D03*
G01*
X2019300Y-4134637D03*
G01*
X2628900Y-5112537D03*
G01*
X-342900Y4437862D03*
G01*
X-596900Y4437862D03*
M02*
