G04 Layer: BottomLayer*
G04 EasyEDA v6.5.22, 2023-01-17 12:05:17*
G04 b103a448d6604d23990311a0c4fa42b9,79949195797447f9ac56d6811569d7a0,10*
G04 Gerber Generator version 0.2*
G04 Scale: 100 percent, Rotated: No, Reflected: No *
G04 Dimensions in millimeters *
G04 leading zeros omitted , absolute positions ,4 integer and 5 decimal *
%FSLAX45Y45*%
%MOMM*%

%ADD10C,0.5000*%
%ADD11C,1.5240*%
%ADD12R,2.0701X2.0701*%
%ADD13C,2.0700*%
%ADD14C,2.0701*%
%ADD15R,1.2659X1.2659*%
%ADD16C,1.2659*%
%ADD17C,1.2660*%
%ADD18O,2.032X1.27*%
%ADD19O,1.27X2.032*%
%ADD20R,1.7000X1.7000*%
%ADD21C,1.7000*%
%ADD22C,1.7780*%
%ADD23C,0.0180*%

%LPD*%
G36*
X-2681732Y-5288889D02*
G01*
X-2685592Y-5288178D01*
X-2688894Y-5285892D01*
X-2691130Y-5282641D01*
X-2691892Y-5278729D01*
X-2691892Y4849114D01*
X-2691130Y4853025D01*
X-2688894Y4856276D01*
X-2685592Y4858512D01*
X-2681732Y4859274D01*
X2946146Y4859274D01*
X2950006Y4858512D01*
X2953308Y4856276D01*
X2955493Y4853025D01*
X2956306Y4849114D01*
X2956306Y-5278729D01*
X2955493Y-5282641D01*
X2953308Y-5285892D01*
X2950006Y-5288178D01*
X2946146Y-5288889D01*
G37*

%LPC*%
G36*
X2628900Y-5227320D02*
G01*
X2643276Y-5226405D01*
X2657449Y-5223764D01*
X2671165Y-5219293D01*
X2684221Y-5213096D01*
X2696362Y-5205374D01*
X2707487Y-5196179D01*
X2717342Y-5185714D01*
X2725826Y-5174030D01*
X2732786Y-5161381D01*
X2738069Y-5148021D01*
X2741676Y-5134000D01*
X2743454Y-5119776D01*
X2743454Y-5105298D01*
X2741676Y-5091023D01*
X2738069Y-5077053D01*
X2732786Y-5063642D01*
X2725826Y-5050993D01*
X2717342Y-5039360D01*
X2707487Y-5028895D01*
X2696362Y-5019649D01*
X2684221Y-5011928D01*
X2671165Y-5005781D01*
X2657449Y-5001310D01*
X2643276Y-4998669D01*
X2628900Y-4997704D01*
X2614523Y-4998669D01*
X2600350Y-5001310D01*
X2586634Y-5005781D01*
X2573578Y-5011928D01*
X2561437Y-5019649D01*
X2550312Y-5028895D01*
X2540457Y-5039360D01*
X2531973Y-5050993D01*
X2529027Y-5056327D01*
X2526792Y-5059172D01*
X2523693Y-5060950D01*
X2520137Y-5061661D01*
X2514498Y-5061661D01*
X2510586Y-5060848D01*
X2507335Y-5058664D01*
X2132228Y-4683607D01*
X2130196Y-4680661D01*
X2129282Y-4677308D01*
X2129586Y-4673803D01*
X2132076Y-4664100D01*
X2133854Y-4649876D01*
X2133854Y-4635398D01*
X2132076Y-4621123D01*
X2128469Y-4607153D01*
X2123186Y-4593742D01*
X2116226Y-4581093D01*
X2107742Y-4569460D01*
X2097887Y-4558995D01*
X2086762Y-4549749D01*
X2074621Y-4542028D01*
X2061565Y-4535881D01*
X2047849Y-4531410D01*
X2033676Y-4528769D01*
X2019300Y-4527804D01*
X2004923Y-4528769D01*
X1990750Y-4531410D01*
X1977034Y-4535881D01*
X1963978Y-4542028D01*
X1951837Y-4549749D01*
X1940712Y-4558995D01*
X1930857Y-4569460D01*
X1922373Y-4581093D01*
X1915414Y-4593742D01*
X1910130Y-4607153D01*
X1906524Y-4621123D01*
X1904746Y-4635398D01*
X1904746Y-4649876D01*
X1906524Y-4664100D01*
X1910130Y-4678121D01*
X1915414Y-4691481D01*
X1922373Y-4704130D01*
X1930857Y-4715814D01*
X1940712Y-4726279D01*
X1951837Y-4735474D01*
X1963978Y-4743196D01*
X1977034Y-4749393D01*
X1990750Y-4753864D01*
X2004923Y-4756505D01*
X2019300Y-4757420D01*
X2033676Y-4756505D01*
X2047849Y-4753864D01*
X2049932Y-4753102D01*
X2053640Y-4752644D01*
X2057247Y-4753508D01*
X2060295Y-4755591D01*
X2453030Y-5148376D01*
X2456484Y-5151526D01*
X2459990Y-5154218D01*
X2463749Y-5156606D01*
X2467711Y-5158638D01*
X2471775Y-5160365D01*
X2476042Y-5161737D01*
X2480360Y-5162702D01*
X2484780Y-5163261D01*
X2489403Y-5163413D01*
X2520137Y-5163413D01*
X2523693Y-5164124D01*
X2526792Y-5165902D01*
X2529027Y-5168696D01*
X2531973Y-5174030D01*
X2540457Y-5185714D01*
X2550312Y-5196179D01*
X2561437Y-5205374D01*
X2573578Y-5213096D01*
X2586634Y-5219293D01*
X2600350Y-5223764D01*
X2614523Y-5226405D01*
G37*
G36*
X1974850Y-4988306D02*
G01*
X1974850Y-4941062D01*
X1927606Y-4941062D01*
X1929739Y-4945684D01*
X1937105Y-4957165D01*
X1945893Y-4967579D01*
X1956003Y-4976723D01*
X1967280Y-4984496D01*
G37*
G36*
X2063750Y-4988306D02*
G01*
X2071319Y-4984496D01*
X2082546Y-4976723D01*
X2092655Y-4967579D01*
X2101494Y-4957165D01*
X2108809Y-4945684D01*
X2110943Y-4941062D01*
X2063750Y-4941062D01*
G37*
G36*
X1927504Y-4852162D02*
G01*
X1974850Y-4852162D01*
X1974850Y-4804816D01*
X1973224Y-4805578D01*
X1961489Y-4812487D01*
X1950821Y-4820920D01*
X1941322Y-4830724D01*
X1933244Y-4841748D01*
G37*
G36*
X2063750Y-4852162D02*
G01*
X2111095Y-4852162D01*
X2105355Y-4841748D01*
X2097227Y-4830724D01*
X2087778Y-4820920D01*
X2077059Y-4812487D01*
X2063750Y-4804816D01*
G37*
G36*
X2019300Y-4503420D02*
G01*
X2033676Y-4502505D01*
X2047849Y-4499864D01*
X2061565Y-4495393D01*
X2074621Y-4489196D01*
X2086762Y-4481474D01*
X2097887Y-4472279D01*
X2107742Y-4461814D01*
X2116226Y-4450130D01*
X2123186Y-4437481D01*
X2128469Y-4424172D01*
X2132279Y-4409084D01*
X2134260Y-4405172D01*
X2137765Y-4402378D01*
X2142134Y-4401413D01*
X2540812Y-4401413D01*
X2544165Y-4401972D01*
X2547112Y-4403648D01*
X2549398Y-4406138D01*
X2552547Y-4411065D01*
X2561336Y-4421479D01*
X2571496Y-4430623D01*
X2582722Y-4438396D01*
X2594864Y-4444492D01*
X2607767Y-4449013D01*
X2621127Y-4451705D01*
X2634742Y-4452620D01*
X2648356Y-4451705D01*
X2661716Y-4449013D01*
X2674620Y-4444492D01*
X2686761Y-4438396D01*
X2697988Y-4430623D01*
X2708148Y-4421479D01*
X2716936Y-4411065D01*
X2724251Y-4399584D01*
X2729992Y-4387189D01*
X2734056Y-4374184D01*
X2736291Y-4360722D01*
X2736748Y-4347108D01*
X2735427Y-4333544D01*
X2732227Y-4320286D01*
X2727350Y-4307535D01*
X2720797Y-4295648D01*
X2712720Y-4284624D01*
X2703220Y-4274820D01*
X2692501Y-4266387D01*
X2680766Y-4259376D01*
X2668219Y-4254144D01*
X2655062Y-4250486D01*
X2641549Y-4248658D01*
X2627934Y-4248658D01*
X2614422Y-4250486D01*
X2601264Y-4254144D01*
X2588717Y-4259376D01*
X2576982Y-4266387D01*
X2566263Y-4274820D01*
X2556764Y-4284624D01*
X2548788Y-4295495D01*
X2546553Y-4297730D01*
X2543708Y-4299153D01*
X2540609Y-4299661D01*
X2095093Y-4299661D01*
X2091639Y-4299051D01*
X2088591Y-4297273D01*
X2086762Y-4295749D01*
X2074621Y-4288028D01*
X2061565Y-4281881D01*
X2047849Y-4277410D01*
X2033676Y-4274769D01*
X2019300Y-4273804D01*
X2004923Y-4274769D01*
X1990750Y-4277410D01*
X1977034Y-4281881D01*
X1963978Y-4288028D01*
X1951837Y-4295749D01*
X1940712Y-4304995D01*
X1930857Y-4315460D01*
X1922373Y-4327093D01*
X1915414Y-4339742D01*
X1910130Y-4353153D01*
X1906524Y-4367123D01*
X1904746Y-4381398D01*
X1904746Y-4395876D01*
X1906524Y-4410100D01*
X1910130Y-4424121D01*
X1915414Y-4437481D01*
X1922373Y-4450130D01*
X1930857Y-4461814D01*
X1940712Y-4472279D01*
X1951837Y-4481474D01*
X1963978Y-4489196D01*
X1977034Y-4495393D01*
X1990750Y-4499864D01*
X2004923Y-4502505D01*
G37*
G36*
X2019300Y-4249420D02*
G01*
X2033676Y-4248505D01*
X2047849Y-4245864D01*
X2061565Y-4241393D01*
X2074621Y-4235196D01*
X2086762Y-4227474D01*
X2097887Y-4218279D01*
X2107742Y-4207814D01*
X2116226Y-4196130D01*
X2119172Y-4190796D01*
X2121408Y-4188002D01*
X2124506Y-4186224D01*
X2128062Y-4185513D01*
X2558948Y-4185513D01*
X2562402Y-4186123D01*
X2565450Y-4187850D01*
X2567279Y-4189374D01*
X2579420Y-4197096D01*
X2592476Y-4203293D01*
X2606192Y-4207764D01*
X2620365Y-4210405D01*
X2634742Y-4211320D01*
X2649118Y-4210405D01*
X2663291Y-4207764D01*
X2677007Y-4203293D01*
X2690063Y-4197096D01*
X2702204Y-4189374D01*
X2713329Y-4180179D01*
X2723184Y-4169714D01*
X2731668Y-4158030D01*
X2738628Y-4145381D01*
X2743911Y-4132021D01*
X2747518Y-4118000D01*
X2749296Y-4103776D01*
X2749296Y-4089298D01*
X2747518Y-4075023D01*
X2743911Y-4061053D01*
X2738628Y-4047642D01*
X2731668Y-4034993D01*
X2723184Y-4023360D01*
X2713329Y-4012895D01*
X2702204Y-4003649D01*
X2690063Y-3995928D01*
X2677007Y-3989781D01*
X2663291Y-3985310D01*
X2649118Y-3982669D01*
X2634742Y-3981704D01*
X2620365Y-3982669D01*
X2606192Y-3985310D01*
X2592476Y-3989781D01*
X2579420Y-3995928D01*
X2567279Y-4003649D01*
X2556154Y-4012895D01*
X2546299Y-4023360D01*
X2537815Y-4034993D01*
X2530856Y-4047642D01*
X2525572Y-4061002D01*
X2521762Y-4076039D01*
X2519781Y-4080001D01*
X2516276Y-4082796D01*
X2511907Y-4083761D01*
X2128062Y-4083761D01*
X2124506Y-4083050D01*
X2121408Y-4081272D01*
X2119172Y-4078427D01*
X2116226Y-4073093D01*
X2107742Y-4061460D01*
X2097887Y-4050995D01*
X2086762Y-4041749D01*
X2074621Y-4034028D01*
X2061565Y-4027881D01*
X2047849Y-4023410D01*
X2033676Y-4020769D01*
X2019300Y-4019804D01*
X2004923Y-4020769D01*
X1990750Y-4023410D01*
X1977034Y-4027881D01*
X1963978Y-4034028D01*
X1951837Y-4041749D01*
X1940712Y-4050995D01*
X1930857Y-4061460D01*
X1922373Y-4073093D01*
X1915414Y-4085742D01*
X1910130Y-4099153D01*
X1906524Y-4113123D01*
X1904746Y-4127398D01*
X1904746Y-4141876D01*
X1906524Y-4156100D01*
X1910130Y-4170121D01*
X1915414Y-4183481D01*
X1922373Y-4196130D01*
X1930857Y-4207814D01*
X1940712Y-4218279D01*
X1951837Y-4227474D01*
X1963978Y-4235196D01*
X1977034Y-4241393D01*
X1990750Y-4245864D01*
X2004923Y-4248505D01*
G37*
G36*
X2634742Y-3957320D02*
G01*
X2649118Y-3956405D01*
X2663291Y-3953764D01*
X2677007Y-3949293D01*
X2690063Y-3943096D01*
X2702204Y-3935374D01*
X2713329Y-3926179D01*
X2723184Y-3915714D01*
X2731668Y-3904030D01*
X2738628Y-3891381D01*
X2743911Y-3878021D01*
X2747518Y-3864000D01*
X2749296Y-3849776D01*
X2749296Y-3835298D01*
X2747518Y-3821023D01*
X2743911Y-3807053D01*
X2738628Y-3793642D01*
X2731668Y-3780993D01*
X2723184Y-3769360D01*
X2713329Y-3758895D01*
X2702204Y-3749649D01*
X2690063Y-3741928D01*
X2677007Y-3735781D01*
X2663291Y-3731310D01*
X2649118Y-3728669D01*
X2634742Y-3727704D01*
X2620365Y-3728669D01*
X2606192Y-3731310D01*
X2592476Y-3735781D01*
X2579420Y-3741928D01*
X2567279Y-3749649D01*
X2556154Y-3758895D01*
X2546299Y-3769360D01*
X2537815Y-3780993D01*
X2534869Y-3786327D01*
X2532634Y-3789172D01*
X2529535Y-3790950D01*
X2525979Y-3791661D01*
X2400198Y-3791661D01*
X2396286Y-3790848D01*
X2393035Y-3788664D01*
X2119528Y-3515207D01*
X2117496Y-3512261D01*
X2116582Y-3508908D01*
X2116886Y-3505403D01*
X2119376Y-3495700D01*
X2121154Y-3481476D01*
X2121154Y-3466998D01*
X2119376Y-3452723D01*
X2115769Y-3438753D01*
X2110486Y-3425342D01*
X2103526Y-3412693D01*
X2095042Y-3401060D01*
X2085187Y-3390595D01*
X2074062Y-3381349D01*
X2061921Y-3373628D01*
X2048865Y-3367481D01*
X2035149Y-3363010D01*
X2020976Y-3360369D01*
X2006600Y-3359404D01*
X1992223Y-3360369D01*
X1978050Y-3363010D01*
X1964334Y-3367481D01*
X1951278Y-3373628D01*
X1939137Y-3381349D01*
X1928012Y-3390595D01*
X1918157Y-3401060D01*
X1909673Y-3412693D01*
X1902714Y-3425342D01*
X1897430Y-3438753D01*
X1893824Y-3452723D01*
X1892046Y-3466998D01*
X1892046Y-3481476D01*
X1893824Y-3495700D01*
X1897430Y-3509721D01*
X1902714Y-3523081D01*
X1909673Y-3535730D01*
X1918157Y-3547414D01*
X1928012Y-3557879D01*
X1939137Y-3567074D01*
X1951278Y-3574796D01*
X1964334Y-3580993D01*
X1978050Y-3585464D01*
X1992223Y-3588105D01*
X2006600Y-3589020D01*
X2020976Y-3588105D01*
X2035149Y-3585464D01*
X2037232Y-3584701D01*
X2040940Y-3584244D01*
X2044547Y-3585108D01*
X2047595Y-3587191D01*
X2070049Y-3609695D01*
X2072284Y-3613048D01*
X2073046Y-3617010D01*
X2072182Y-3620922D01*
X2069846Y-3624224D01*
X2066442Y-3626358D01*
X2062480Y-3627069D01*
X2058568Y-3626053D01*
X2048865Y-3621481D01*
X2035149Y-3617010D01*
X2020976Y-3614369D01*
X2006600Y-3613404D01*
X1992223Y-3614369D01*
X1978050Y-3617010D01*
X1964334Y-3621481D01*
X1951278Y-3627628D01*
X1939137Y-3635349D01*
X1928012Y-3644595D01*
X1918157Y-3655060D01*
X1909673Y-3666693D01*
X1906727Y-3672027D01*
X1904492Y-3674872D01*
X1901393Y-3676650D01*
X1897837Y-3677361D01*
X1829917Y-3677361D01*
X1826869Y-3676853D01*
X1824126Y-3675532D01*
X1811324Y-3662934D01*
X1800352Y-3654907D01*
X1788363Y-3648303D01*
X1775663Y-3643376D01*
X1762404Y-3640226D01*
X1748840Y-3638854D01*
X1735175Y-3639312D01*
X1721764Y-3641648D01*
X1708708Y-3645611D01*
X1696364Y-3651402D01*
X1684832Y-3658768D01*
X1674418Y-3667556D01*
X1665274Y-3677615D01*
X1657553Y-3688943D01*
X1651406Y-3701034D01*
X1646936Y-3713987D01*
X1644243Y-3727297D01*
X1643329Y-3740912D01*
X1644243Y-3754526D01*
X1646936Y-3767886D01*
X1651406Y-3780790D01*
X1657553Y-3792931D01*
X1665274Y-3804158D01*
X1674418Y-3814267D01*
X1684832Y-3823106D01*
X1696364Y-3830421D01*
X1708708Y-3836162D01*
X1721764Y-3840226D01*
X1735175Y-3842461D01*
X1748840Y-3842969D01*
X1762404Y-3841546D01*
X1775663Y-3838448D01*
X1788363Y-3833571D01*
X1800352Y-3826967D01*
X1811324Y-3818890D01*
X1821129Y-3809390D01*
X1829562Y-3798671D01*
X1836521Y-3786936D01*
X1837232Y-3785311D01*
X1839417Y-3782060D01*
X1842719Y-3779926D01*
X1846580Y-3779113D01*
X1897837Y-3779113D01*
X1901393Y-3779824D01*
X1904492Y-3781602D01*
X1906727Y-3784396D01*
X1909673Y-3789730D01*
X1918157Y-3801414D01*
X1928012Y-3811879D01*
X1939137Y-3821074D01*
X1951278Y-3828796D01*
X1964334Y-3834993D01*
X1978050Y-3839464D01*
X1992223Y-3842105D01*
X2006600Y-3843020D01*
X2020976Y-3842105D01*
X2035149Y-3839464D01*
X2048865Y-3834993D01*
X2061921Y-3828796D01*
X2074062Y-3821074D01*
X2085187Y-3811879D01*
X2095042Y-3801414D01*
X2103526Y-3789730D01*
X2110486Y-3777081D01*
X2115769Y-3763721D01*
X2119376Y-3749700D01*
X2121154Y-3735476D01*
X2121154Y-3720998D01*
X2119376Y-3706723D01*
X2115769Y-3692753D01*
X2110486Y-3679342D01*
X2109114Y-3676904D01*
X2107895Y-3672992D01*
X2108352Y-3668928D01*
X2110384Y-3665270D01*
X2113686Y-3662781D01*
X2117699Y-3661867D01*
X2121763Y-3662578D01*
X2125218Y-3664813D01*
X2338730Y-3878376D01*
X2342184Y-3881526D01*
X2345690Y-3884218D01*
X2349449Y-3886606D01*
X2353411Y-3888638D01*
X2357475Y-3890365D01*
X2361742Y-3891737D01*
X2366060Y-3892702D01*
X2370480Y-3893261D01*
X2375103Y-3893413D01*
X2525979Y-3893413D01*
X2529535Y-3894124D01*
X2532634Y-3895902D01*
X2534869Y-3898696D01*
X2537815Y-3904030D01*
X2546299Y-3915714D01*
X2556154Y-3926179D01*
X2567279Y-3935374D01*
X2579420Y-3943096D01*
X2592476Y-3949293D01*
X2606192Y-3953764D01*
X2620365Y-3956405D01*
G37*
G36*
X1131976Y-3832707D02*
G01*
X1142441Y-3826967D01*
X1153414Y-3818940D01*
X1163218Y-3809390D01*
X1171702Y-3798671D01*
X1178610Y-3786936D01*
X1179322Y-3785362D01*
X1131976Y-3785362D01*
G37*
G36*
X1043076Y-3832656D02*
G01*
X1043076Y-3785362D01*
X995883Y-3785362D01*
X999693Y-3792931D01*
X1007414Y-3804259D01*
X1016558Y-3814318D01*
X1026972Y-3823106D01*
X1038453Y-3830421D01*
G37*
G36*
X2634742Y-3703320D02*
G01*
X2649118Y-3702405D01*
X2663291Y-3699764D01*
X2677007Y-3695293D01*
X2690063Y-3689096D01*
X2702204Y-3681374D01*
X2713329Y-3672179D01*
X2723184Y-3661714D01*
X2731668Y-3650030D01*
X2738628Y-3637381D01*
X2743911Y-3624021D01*
X2747518Y-3610000D01*
X2749296Y-3595776D01*
X2749296Y-3581298D01*
X2747518Y-3567023D01*
X2743911Y-3553053D01*
X2738628Y-3539642D01*
X2731668Y-3526993D01*
X2723184Y-3515360D01*
X2713329Y-3504895D01*
X2702204Y-3495649D01*
X2690063Y-3487928D01*
X2677007Y-3481781D01*
X2663291Y-3477310D01*
X2649118Y-3474669D01*
X2634742Y-3473704D01*
X2620365Y-3474669D01*
X2606192Y-3477310D01*
X2592476Y-3481781D01*
X2579420Y-3487928D01*
X2567279Y-3495649D01*
X2556154Y-3504895D01*
X2546299Y-3515360D01*
X2537815Y-3526993D01*
X2530856Y-3539642D01*
X2525572Y-3553053D01*
X2521966Y-3567023D01*
X2520188Y-3581298D01*
X2520188Y-3595776D01*
X2521966Y-3610000D01*
X2525572Y-3624021D01*
X2530856Y-3637381D01*
X2537815Y-3650030D01*
X2546299Y-3661714D01*
X2556154Y-3672179D01*
X2567279Y-3681374D01*
X2579420Y-3689096D01*
X2592476Y-3695293D01*
X2606192Y-3699764D01*
X2620365Y-3702405D01*
G37*
G36*
X995883Y-3696462D02*
G01*
X1043076Y-3696462D01*
X1043076Y-3649268D01*
X1038453Y-3651453D01*
X1026972Y-3658768D01*
X1016558Y-3667607D01*
X1007414Y-3677716D01*
X999693Y-3688943D01*
G37*
G36*
X1131976Y-3696462D02*
G01*
X1179322Y-3696462D01*
X1178610Y-3694937D01*
X1171702Y-3683203D01*
X1163218Y-3672484D01*
X1153414Y-3662984D01*
X1142441Y-3654907D01*
X1131976Y-3649116D01*
G37*
G36*
X2634742Y-3449320D02*
G01*
X2649118Y-3448405D01*
X2663291Y-3445764D01*
X2677007Y-3441293D01*
X2690063Y-3435096D01*
X2702204Y-3427374D01*
X2713329Y-3418179D01*
X2723184Y-3407714D01*
X2731668Y-3396030D01*
X2738628Y-3383381D01*
X2743911Y-3370021D01*
X2747518Y-3356000D01*
X2749296Y-3341776D01*
X2749296Y-3327298D01*
X2747518Y-3313023D01*
X2743911Y-3299053D01*
X2738628Y-3285642D01*
X2731668Y-3272993D01*
X2723184Y-3261360D01*
X2713329Y-3250895D01*
X2702204Y-3241649D01*
X2690063Y-3233928D01*
X2677007Y-3227781D01*
X2663291Y-3223310D01*
X2649118Y-3220669D01*
X2634742Y-3219704D01*
X2620365Y-3220669D01*
X2606192Y-3223310D01*
X2592476Y-3227781D01*
X2579420Y-3233928D01*
X2567279Y-3241649D01*
X2556154Y-3250895D01*
X2546299Y-3261360D01*
X2537815Y-3272993D01*
X2530856Y-3285642D01*
X2525572Y-3299053D01*
X2521966Y-3313023D01*
X2520188Y-3327298D01*
X2520188Y-3341776D01*
X2521966Y-3356000D01*
X2525572Y-3370021D01*
X2530856Y-3383381D01*
X2537815Y-3396030D01*
X2546299Y-3407714D01*
X2556154Y-3418179D01*
X2567279Y-3427374D01*
X2579420Y-3435096D01*
X2592476Y-3441293D01*
X2606192Y-3445764D01*
X2620365Y-3448405D01*
G37*
G36*
X2634742Y-3195320D02*
G01*
X2649118Y-3194405D01*
X2663291Y-3191764D01*
X2677007Y-3187293D01*
X2690063Y-3181096D01*
X2702204Y-3173374D01*
X2713329Y-3164179D01*
X2723184Y-3153714D01*
X2731668Y-3142030D01*
X2738628Y-3129381D01*
X2743911Y-3116021D01*
X2747518Y-3102000D01*
X2749296Y-3087776D01*
X2749296Y-3073298D01*
X2747518Y-3059023D01*
X2743911Y-3045053D01*
X2738628Y-3031642D01*
X2731668Y-3018993D01*
X2723184Y-3007360D01*
X2713329Y-2996895D01*
X2702204Y-2987649D01*
X2690063Y-2979928D01*
X2677007Y-2973781D01*
X2663291Y-2969310D01*
X2649118Y-2966669D01*
X2634742Y-2965704D01*
X2620365Y-2966669D01*
X2606192Y-2969310D01*
X2592476Y-2973781D01*
X2579420Y-2979928D01*
X2567279Y-2987649D01*
X2556154Y-2996895D01*
X2546299Y-3007360D01*
X2537815Y-3018993D01*
X2530856Y-3031642D01*
X2525572Y-3045053D01*
X2521966Y-3059023D01*
X2520188Y-3073298D01*
X2520188Y-3087776D01*
X2521966Y-3102000D01*
X2525572Y-3116021D01*
X2530856Y-3129381D01*
X2537815Y-3142030D01*
X2546299Y-3153714D01*
X2556154Y-3164179D01*
X2567279Y-3173374D01*
X2579420Y-3181096D01*
X2592476Y-3187293D01*
X2606192Y-3191764D01*
X2620365Y-3194405D01*
G37*
G36*
X2634742Y-2941320D02*
G01*
X2649118Y-2940405D01*
X2663291Y-2937764D01*
X2677007Y-2933293D01*
X2690063Y-2927096D01*
X2702204Y-2919374D01*
X2713329Y-2910179D01*
X2723184Y-2899714D01*
X2731668Y-2888030D01*
X2738628Y-2875381D01*
X2743911Y-2862021D01*
X2747518Y-2848000D01*
X2749296Y-2833776D01*
X2749296Y-2819298D01*
X2747518Y-2805023D01*
X2743911Y-2791053D01*
X2738628Y-2777642D01*
X2731668Y-2764993D01*
X2723184Y-2753360D01*
X2713329Y-2742895D01*
X2702204Y-2733649D01*
X2690063Y-2725928D01*
X2677007Y-2719781D01*
X2663291Y-2715310D01*
X2649118Y-2712669D01*
X2634742Y-2711704D01*
X2620365Y-2712669D01*
X2606192Y-2715310D01*
X2592476Y-2719781D01*
X2579420Y-2725928D01*
X2567279Y-2733649D01*
X2556154Y-2742895D01*
X2546299Y-2753360D01*
X2537815Y-2764993D01*
X2530856Y-2777642D01*
X2525572Y-2791053D01*
X2521966Y-2805023D01*
X2520188Y-2819298D01*
X2520188Y-2833776D01*
X2521966Y-2848000D01*
X2525572Y-2862021D01*
X2530856Y-2875381D01*
X2537815Y-2888030D01*
X2546299Y-2899714D01*
X2556154Y-2910179D01*
X2567279Y-2919374D01*
X2579420Y-2927096D01*
X2592476Y-2933293D01*
X2606192Y-2937764D01*
X2620365Y-2940405D01*
G37*
G36*
X-2197100Y-2687320D02*
G01*
X-2182723Y-2686405D01*
X-2168550Y-2683764D01*
X-2154834Y-2679293D01*
X-2141778Y-2673096D01*
X-2129637Y-2665374D01*
X-2118512Y-2656179D01*
X-2108657Y-2645714D01*
X-2100173Y-2634030D01*
X-2093214Y-2621381D01*
X-2087930Y-2608021D01*
X-2084324Y-2594000D01*
X-2082546Y-2579776D01*
X-2082546Y-2565298D01*
X-2084324Y-2551023D01*
X-2087930Y-2537053D01*
X-2093214Y-2523642D01*
X-2100173Y-2510993D01*
X-2108657Y-2499360D01*
X-2118512Y-2488895D01*
X-2129637Y-2479649D01*
X-2141778Y-2471928D01*
X-2154834Y-2465781D01*
X-2168550Y-2461310D01*
X-2182723Y-2458669D01*
X-2197100Y-2457704D01*
X-2211476Y-2458669D01*
X-2225649Y-2461310D01*
X-2239365Y-2465781D01*
X-2252421Y-2471928D01*
X-2264562Y-2479649D01*
X-2275687Y-2488895D01*
X-2285542Y-2499360D01*
X-2294026Y-2510993D01*
X-2300986Y-2523642D01*
X-2306269Y-2537053D01*
X-2309876Y-2551023D01*
X-2311654Y-2565298D01*
X-2311654Y-2579776D01*
X-2309876Y-2594000D01*
X-2306269Y-2608021D01*
X-2300986Y-2621381D01*
X-2294026Y-2634030D01*
X-2285542Y-2645714D01*
X-2275687Y-2656179D01*
X-2264562Y-2665374D01*
X-2252421Y-2673096D01*
X-2239365Y-2679293D01*
X-2225649Y-2683764D01*
X-2211476Y-2686405D01*
G37*
G36*
X2634742Y-2687320D02*
G01*
X2649118Y-2686405D01*
X2663291Y-2683764D01*
X2677007Y-2679293D01*
X2690063Y-2673096D01*
X2702204Y-2665374D01*
X2713329Y-2656179D01*
X2723184Y-2645714D01*
X2731668Y-2634030D01*
X2738628Y-2621381D01*
X2743911Y-2608021D01*
X2747518Y-2594000D01*
X2749296Y-2579776D01*
X2749296Y-2565298D01*
X2747518Y-2551023D01*
X2743911Y-2537053D01*
X2738628Y-2523642D01*
X2731668Y-2510993D01*
X2723184Y-2499360D01*
X2713329Y-2488895D01*
X2702204Y-2479649D01*
X2690063Y-2471928D01*
X2677007Y-2465781D01*
X2663291Y-2461310D01*
X2649118Y-2458669D01*
X2634742Y-2457704D01*
X2620365Y-2458669D01*
X2606192Y-2461310D01*
X2592476Y-2465781D01*
X2579420Y-2471928D01*
X2567279Y-2479649D01*
X2556154Y-2488895D01*
X2546299Y-2499360D01*
X2537815Y-2510993D01*
X2530856Y-2523642D01*
X2525572Y-2537053D01*
X2521966Y-2551023D01*
X2520188Y-2565298D01*
X2520188Y-2579776D01*
X2521966Y-2594000D01*
X2525572Y-2608021D01*
X2530856Y-2621381D01*
X2537815Y-2634030D01*
X2546299Y-2645714D01*
X2556154Y-2656179D01*
X2567279Y-2665374D01*
X2579420Y-2673096D01*
X2592476Y-2679293D01*
X2606192Y-2683764D01*
X2620365Y-2686405D01*
G37*
G36*
X-2197100Y-2433320D02*
G01*
X-2182723Y-2432405D01*
X-2168550Y-2429764D01*
X-2154834Y-2425293D01*
X-2141778Y-2419096D01*
X-2129637Y-2411374D01*
X-2118512Y-2402179D01*
X-2108657Y-2391714D01*
X-2100173Y-2380030D01*
X-2093214Y-2367381D01*
X-2087930Y-2354021D01*
X-2084324Y-2340000D01*
X-2082546Y-2325776D01*
X-2082546Y-2311298D01*
X-2084324Y-2297023D01*
X-2087930Y-2283053D01*
X-2093214Y-2269642D01*
X-2100173Y-2256993D01*
X-2108657Y-2245360D01*
X-2118512Y-2234895D01*
X-2129637Y-2225649D01*
X-2141778Y-2217928D01*
X-2154834Y-2211781D01*
X-2168550Y-2207310D01*
X-2182723Y-2204669D01*
X-2197100Y-2203704D01*
X-2211476Y-2204669D01*
X-2225649Y-2207310D01*
X-2239365Y-2211781D01*
X-2252421Y-2217928D01*
X-2264562Y-2225649D01*
X-2275687Y-2234895D01*
X-2285542Y-2245360D01*
X-2294026Y-2256993D01*
X-2300986Y-2269642D01*
X-2306269Y-2283053D01*
X-2309876Y-2297023D01*
X-2311654Y-2311298D01*
X-2311654Y-2325776D01*
X-2309876Y-2340000D01*
X-2306269Y-2354021D01*
X-2300986Y-2367381D01*
X-2294026Y-2380030D01*
X-2285542Y-2391714D01*
X-2275687Y-2402179D01*
X-2264562Y-2411374D01*
X-2252421Y-2419096D01*
X-2239365Y-2425293D01*
X-2225649Y-2429764D01*
X-2211476Y-2432405D01*
G37*
G36*
X-2197100Y-2179320D02*
G01*
X-2182723Y-2178405D01*
X-2168550Y-2175764D01*
X-2154834Y-2171293D01*
X-2141778Y-2165096D01*
X-2129637Y-2157374D01*
X-2118512Y-2148179D01*
X-2108657Y-2137714D01*
X-2100173Y-2126030D01*
X-2093214Y-2113381D01*
X-2087930Y-2100021D01*
X-2084324Y-2086000D01*
X-2082546Y-2071776D01*
X-2082546Y-2057298D01*
X-2084324Y-2043023D01*
X-2087930Y-2029053D01*
X-2093214Y-2015642D01*
X-2100173Y-2002993D01*
X-2108657Y-1991360D01*
X-2118512Y-1980895D01*
X-2129637Y-1971649D01*
X-2141778Y-1963928D01*
X-2154834Y-1957781D01*
X-2168550Y-1953310D01*
X-2182723Y-1950669D01*
X-2197100Y-1949704D01*
X-2211476Y-1950669D01*
X-2225649Y-1953310D01*
X-2239365Y-1957781D01*
X-2252421Y-1963928D01*
X-2264562Y-1971649D01*
X-2275687Y-1980895D01*
X-2285542Y-1991360D01*
X-2294026Y-2002993D01*
X-2300986Y-2015642D01*
X-2306269Y-2029053D01*
X-2309876Y-2043023D01*
X-2311654Y-2057298D01*
X-2311654Y-2071776D01*
X-2309876Y-2086000D01*
X-2306269Y-2100021D01*
X-2300986Y-2113381D01*
X-2294026Y-2126030D01*
X-2285542Y-2137714D01*
X-2275687Y-2148179D01*
X-2264562Y-2157374D01*
X-2252421Y-2165096D01*
X-2239365Y-2171293D01*
X-2225649Y-2175764D01*
X-2211476Y-2178405D01*
G37*
G36*
X-2197100Y-1925320D02*
G01*
X-2182723Y-1924405D01*
X-2168550Y-1921764D01*
X-2154834Y-1917293D01*
X-2141778Y-1911096D01*
X-2129637Y-1903374D01*
X-2118512Y-1894179D01*
X-2108657Y-1883714D01*
X-2100173Y-1872030D01*
X-2093214Y-1859381D01*
X-2087930Y-1846021D01*
X-2084324Y-1832000D01*
X-2082546Y-1817776D01*
X-2082546Y-1803298D01*
X-2084324Y-1789023D01*
X-2087930Y-1775053D01*
X-2093214Y-1761642D01*
X-2100173Y-1748993D01*
X-2108657Y-1737360D01*
X-2118512Y-1726895D01*
X-2129637Y-1717649D01*
X-2141778Y-1709928D01*
X-2154834Y-1703781D01*
X-2168550Y-1699310D01*
X-2182723Y-1696669D01*
X-2197100Y-1695704D01*
X-2211476Y-1696669D01*
X-2225649Y-1699310D01*
X-2239365Y-1703781D01*
X-2252421Y-1709928D01*
X-2264562Y-1717649D01*
X-2275687Y-1726895D01*
X-2285542Y-1737360D01*
X-2294026Y-1748993D01*
X-2300986Y-1761642D01*
X-2306269Y-1775053D01*
X-2309876Y-1789023D01*
X-2311654Y-1803298D01*
X-2311654Y-1817776D01*
X-2309876Y-1832000D01*
X-2306269Y-1846021D01*
X-2300986Y-1859381D01*
X-2294026Y-1872030D01*
X-2285542Y-1883714D01*
X-2275687Y-1894179D01*
X-2264562Y-1903374D01*
X-2252421Y-1911096D01*
X-2239365Y-1917293D01*
X-2225649Y-1921764D01*
X-2211476Y-1924405D01*
G37*
G36*
X-2197100Y-1671320D02*
G01*
X-2182723Y-1670405D01*
X-2168550Y-1667764D01*
X-2154834Y-1663293D01*
X-2141778Y-1657096D01*
X-2129637Y-1649374D01*
X-2118512Y-1640179D01*
X-2108657Y-1629714D01*
X-2100173Y-1618030D01*
X-2093214Y-1605381D01*
X-2087930Y-1592021D01*
X-2084324Y-1578000D01*
X-2082546Y-1563776D01*
X-2082546Y-1549298D01*
X-2084324Y-1535023D01*
X-2087930Y-1521053D01*
X-2093214Y-1507642D01*
X-2100173Y-1494993D01*
X-2108657Y-1483360D01*
X-2118512Y-1472895D01*
X-2129637Y-1463649D01*
X-2141778Y-1455928D01*
X-2154834Y-1449781D01*
X-2168550Y-1445310D01*
X-2182723Y-1442669D01*
X-2197100Y-1441704D01*
X-2211476Y-1442669D01*
X-2225649Y-1445310D01*
X-2239365Y-1449781D01*
X-2252421Y-1455928D01*
X-2264562Y-1463649D01*
X-2275687Y-1472895D01*
X-2285542Y-1483360D01*
X-2294026Y-1494993D01*
X-2300986Y-1507642D01*
X-2306269Y-1521053D01*
X-2309876Y-1535023D01*
X-2311654Y-1549298D01*
X-2311654Y-1563776D01*
X-2309876Y-1578000D01*
X-2306269Y-1592021D01*
X-2300986Y-1605381D01*
X-2294026Y-1618030D01*
X-2285542Y-1629714D01*
X-2275687Y-1640179D01*
X-2264562Y-1649374D01*
X-2252421Y-1657096D01*
X-2239365Y-1663293D01*
X-2225649Y-1667764D01*
X-2211476Y-1670405D01*
G37*
G36*
X-2197100Y-1417320D02*
G01*
X-2182723Y-1416405D01*
X-2168550Y-1413764D01*
X-2154834Y-1409293D01*
X-2141778Y-1403096D01*
X-2129637Y-1395374D01*
X-2118512Y-1386179D01*
X-2108657Y-1375714D01*
X-2100173Y-1364030D01*
X-2093214Y-1351381D01*
X-2087930Y-1338021D01*
X-2084324Y-1324000D01*
X-2082546Y-1309776D01*
X-2082546Y-1295298D01*
X-2084324Y-1281023D01*
X-2087930Y-1267053D01*
X-2093214Y-1253642D01*
X-2100173Y-1240993D01*
X-2108657Y-1229360D01*
X-2118512Y-1218895D01*
X-2129637Y-1209649D01*
X-2141778Y-1201928D01*
X-2154834Y-1195781D01*
X-2168550Y-1191310D01*
X-2182723Y-1188669D01*
X-2197100Y-1187704D01*
X-2211476Y-1188669D01*
X-2225649Y-1191310D01*
X-2239365Y-1195781D01*
X-2252421Y-1201928D01*
X-2264562Y-1209649D01*
X-2275687Y-1218895D01*
X-2285542Y-1229360D01*
X-2294026Y-1240993D01*
X-2300986Y-1253642D01*
X-2306269Y-1267053D01*
X-2309876Y-1281023D01*
X-2311654Y-1295298D01*
X-2311654Y-1309776D01*
X-2309876Y-1324000D01*
X-2306269Y-1338021D01*
X-2300986Y-1351381D01*
X-2294026Y-1364030D01*
X-2285542Y-1375714D01*
X-2275687Y-1386179D01*
X-2264562Y-1395374D01*
X-2252421Y-1403096D01*
X-2239365Y-1409293D01*
X-2225649Y-1413764D01*
X-2211476Y-1416405D01*
G37*
G36*
X-2197100Y-1163320D02*
G01*
X-2182723Y-1162405D01*
X-2168550Y-1159764D01*
X-2154834Y-1155293D01*
X-2141778Y-1149096D01*
X-2129637Y-1141374D01*
X-2118512Y-1132179D01*
X-2108657Y-1121714D01*
X-2100173Y-1110030D01*
X-2093214Y-1097381D01*
X-2087930Y-1084021D01*
X-2084324Y-1070000D01*
X-2082546Y-1055776D01*
X-2082546Y-1041298D01*
X-2084324Y-1027023D01*
X-2087930Y-1013053D01*
X-2093214Y-999642D01*
X-2100173Y-986993D01*
X-2108657Y-975360D01*
X-2118512Y-964895D01*
X-2129637Y-955649D01*
X-2141778Y-947928D01*
X-2154834Y-941781D01*
X-2168550Y-937310D01*
X-2182723Y-934669D01*
X-2197100Y-933703D01*
X-2211476Y-934669D01*
X-2225649Y-937310D01*
X-2239365Y-941781D01*
X-2252421Y-947928D01*
X-2264562Y-955649D01*
X-2275687Y-964895D01*
X-2285542Y-975360D01*
X-2294026Y-986993D01*
X-2300986Y-999642D01*
X-2306269Y-1013053D01*
X-2309876Y-1027023D01*
X-2311654Y-1041298D01*
X-2311654Y-1055776D01*
X-2309876Y-1070000D01*
X-2306269Y-1084021D01*
X-2300986Y-1097381D01*
X-2294026Y-1110030D01*
X-2285542Y-1121714D01*
X-2275687Y-1132179D01*
X-2264562Y-1141374D01*
X-2252421Y-1149096D01*
X-2239365Y-1155293D01*
X-2225649Y-1159764D01*
X-2211476Y-1162405D01*
G37*
G36*
X-2197100Y-909319D02*
G01*
X-2182723Y-908405D01*
X-2168550Y-905764D01*
X-2154834Y-901293D01*
X-2141778Y-895096D01*
X-2129637Y-887374D01*
X-2118512Y-878179D01*
X-2108657Y-867714D01*
X-2100173Y-856030D01*
X-2097227Y-850696D01*
X-2094992Y-847902D01*
X-2091893Y-846124D01*
X-2088337Y-845413D01*
X2336596Y-845413D01*
X2341219Y-845261D01*
X2345639Y-844702D01*
X2349957Y-843737D01*
X2354224Y-842365D01*
X2358288Y-840638D01*
X2362250Y-838606D01*
X2366010Y-836218D01*
X2369515Y-833577D01*
X2372969Y-830376D01*
X2867964Y-335381D01*
X2871114Y-331927D01*
X2873806Y-328472D01*
X2876194Y-324662D01*
X2878226Y-320700D01*
X2879953Y-316687D01*
X2881274Y-312369D01*
X2882239Y-308051D01*
X2882798Y-303631D01*
X2883001Y-299059D01*
X2883001Y2519984D01*
X2882798Y2524607D01*
X2882239Y2529027D01*
X2881274Y2533345D01*
X2879953Y2537612D01*
X2878226Y2541676D01*
X2876194Y2545638D01*
X2873806Y2549398D01*
X2871114Y2552903D01*
X2867964Y2556357D01*
X2728569Y2695702D01*
X2725115Y2698902D01*
X2721610Y2701544D01*
X2717850Y2703931D01*
X2713888Y2705963D01*
X2709824Y2707741D01*
X2705557Y2709062D01*
X2701239Y2710027D01*
X2696819Y2710586D01*
X2692196Y2710738D01*
X736803Y2710738D01*
X732180Y2710586D01*
X727760Y2710027D01*
X723442Y2709062D01*
X719175Y2707741D01*
X715111Y2705963D01*
X711149Y2703931D01*
X707390Y2701544D01*
X703884Y2698902D01*
X700430Y2695702D01*
X-161036Y1834286D01*
X-164287Y1832000D01*
X-168198Y1831289D01*
X-451459Y1831289D01*
X-455320Y1832000D01*
X-458622Y1834286D01*
X-460857Y1837588D01*
X-461619Y1841398D01*
X-460857Y1845310D01*
X-458622Y1848612D01*
X72339Y2379573D01*
X74930Y2381504D01*
X77978Y2382469D01*
X81178Y2382418D01*
X92557Y2380538D01*
X106222Y2380030D01*
X119786Y2381402D01*
X133045Y2384552D01*
X145745Y2389428D01*
X157734Y2396032D01*
X168706Y2404059D01*
X178511Y2413609D01*
X186944Y2424328D01*
X193903Y2436063D01*
X199237Y2448560D01*
X202844Y2461717D01*
X204673Y2475280D01*
X204673Y2488895D01*
X202844Y2502408D01*
X199237Y2515565D01*
X193903Y2528062D01*
X186944Y2539796D01*
X178511Y2550515D01*
X168706Y2560066D01*
X157734Y2568092D01*
X145745Y2574696D01*
X133045Y2579573D01*
X119786Y2582773D01*
X106222Y2584094D01*
X92557Y2583637D01*
X79146Y2581351D01*
X66090Y2577338D01*
X53746Y2571546D01*
X42265Y2564231D01*
X31851Y2555443D01*
X22707Y2545283D01*
X14985Y2534056D01*
X8839Y2521966D01*
X4318Y2509012D01*
X1625Y2495702D01*
X711Y2482088D01*
X1625Y2468473D01*
X3149Y2460853D01*
X3302Y2457551D01*
X2336Y2454300D01*
X406Y2451658D01*
X-616966Y1834286D01*
X-620268Y1832000D01*
X-624179Y1831289D01*
X-726135Y1831289D01*
X-730046Y1832000D01*
X-733298Y1834286D01*
X-735533Y1837588D01*
X-737006Y1849424D01*
X-738936Y1854911D01*
X-741984Y1859788D01*
X-746099Y1863852D01*
X-750976Y1866950D01*
X-756462Y1868881D01*
X-762762Y1869592D01*
X-888237Y1869592D01*
X-893267Y1869033D01*
X-897382Y1869389D01*
X-901039Y1871421D01*
X-903579Y1874723D01*
X-904544Y1878736D01*
X-903884Y1882800D01*
X-901598Y1886254D01*
X-421335Y2366467D01*
X-418185Y2369921D01*
X-415493Y2373477D01*
X-413105Y2377186D01*
X-411073Y2381148D01*
X-409397Y2385263D01*
X-408025Y2389682D01*
X-406146Y2393086D01*
X-391312Y2404059D01*
X-381508Y2413609D01*
X-373024Y2424328D01*
X-366064Y2436063D01*
X-360781Y2448560D01*
X-357174Y2461717D01*
X-355346Y2475280D01*
X-355346Y2488895D01*
X-357174Y2502408D01*
X-360781Y2515565D01*
X-366064Y2528062D01*
X-373024Y2539796D01*
X-381508Y2550515D01*
X-391312Y2560066D01*
X-402285Y2568092D01*
X-414223Y2574696D01*
X-426974Y2579573D01*
X-440232Y2582773D01*
X-453796Y2584094D01*
X-467410Y2583637D01*
X-480872Y2581351D01*
X-493877Y2577338D01*
X-506272Y2571546D01*
X-517753Y2564231D01*
X-528167Y2555443D01*
X-537311Y2545283D01*
X-545033Y2534056D01*
X-551180Y2521966D01*
X-555650Y2509012D01*
X-558393Y2495702D01*
X-559308Y2482088D01*
X-558393Y2468473D01*
X-555650Y2455113D01*
X-551180Y2442159D01*
X-545033Y2430068D01*
X-537311Y2418842D01*
X-532282Y2413254D01*
X-530301Y2409901D01*
X-529640Y2406192D01*
X-530453Y2402433D01*
X-532638Y2399182D01*
X-1023924Y1907946D01*
X-1027226Y1905711D01*
X-1031138Y1904898D01*
X-1034999Y1905711D01*
X-1038301Y1907946D01*
X-1040536Y1911197D01*
X-1041298Y1915058D01*
X-1041298Y2138984D01*
X-1041501Y2143607D01*
X-1042060Y2148027D01*
X-1043025Y2152345D01*
X-1044346Y2156612D01*
X-1046073Y2160676D01*
X-1048105Y2164638D01*
X-1050493Y2168398D01*
X-1053185Y2171903D01*
X-1056335Y2175357D01*
X-1368501Y2487523D01*
X-1370736Y2490774D01*
X-1371498Y2494686D01*
X-1371498Y2735630D01*
X-1370888Y2739034D01*
X-1369161Y2742082D01*
X-1366520Y2744419D01*
X-1364640Y2745486D01*
X-1353921Y2753969D01*
X-1344422Y2763774D01*
X-1336344Y2774696D01*
X-1329791Y2786735D01*
X-1324914Y2799435D01*
X-1321714Y2812694D01*
X-1320393Y2826258D01*
X-1320850Y2839923D01*
X-1323086Y2853334D01*
X-1327150Y2866390D01*
X-1332890Y2878734D01*
X-1340205Y2890266D01*
X-1348994Y2900680D01*
X-1359154Y2909824D01*
X-1370380Y2917494D01*
X-1382522Y2923692D01*
X-1395425Y2928112D01*
X-1408785Y2930855D01*
X-1422400Y2931769D01*
X-1436014Y2930855D01*
X-1449374Y2928112D01*
X-1462278Y2923692D01*
X-1474419Y2917494D01*
X-1485646Y2909824D01*
X-1495806Y2900680D01*
X-1504594Y2890266D01*
X-1511909Y2878734D01*
X-1517650Y2866390D01*
X-1521714Y2853334D01*
X-1523949Y2839923D01*
X-1524406Y2826258D01*
X-1523085Y2812694D01*
X-1519885Y2799435D01*
X-1515008Y2786735D01*
X-1508455Y2774696D01*
X-1500378Y2763774D01*
X-1490878Y2753969D01*
X-1480159Y2745486D01*
X-1478280Y2744419D01*
X-1475638Y2742082D01*
X-1473911Y2739034D01*
X-1473301Y2735630D01*
X-1473301Y2469540D01*
X-1473098Y2464968D01*
X-1472539Y2460548D01*
X-1471574Y2456230D01*
X-1470253Y2451912D01*
X-1468526Y2447899D01*
X-1466494Y2443937D01*
X-1464106Y2440127D01*
X-1461414Y2436672D01*
X-1458264Y2433218D01*
X-1146098Y2121052D01*
X-1143863Y2117750D01*
X-1143101Y2113838D01*
X-1143101Y1846732D01*
X-1143863Y1842820D01*
X-1154531Y1828546D01*
X-1160627Y1817370D01*
X-1165047Y1805533D01*
X-1167790Y1793036D01*
X-1168654Y1780336D01*
X-1167790Y1767636D01*
X-1165047Y1755241D01*
X-1160627Y1743354D01*
X-1154531Y1732178D01*
X-1146911Y1721967D01*
X-1137920Y1712925D01*
X-1127709Y1705356D01*
X-1116533Y1699209D01*
X-1104646Y1694789D01*
X-1092200Y1692097D01*
X-1079500Y1691233D01*
X-1066800Y1692097D01*
X-1054354Y1694789D01*
X-1042466Y1699209D01*
X-1031290Y1705356D01*
X-1021080Y1712925D01*
X-1012088Y1721967D01*
X-1004468Y1732178D01*
X-998372Y1743354D01*
X-993952Y1755241D01*
X-991209Y1767636D01*
X-990346Y1780336D01*
X-991158Y1791817D01*
X-990498Y1796084D01*
X-988212Y1799691D01*
X-931418Y1856435D01*
X-927963Y1858772D01*
X-923848Y1859381D01*
X-919835Y1858416D01*
X-916533Y1855927D01*
X-914501Y1852269D01*
X-914146Y1848104D01*
X-914704Y1843125D01*
X-914704Y1717649D01*
X-913993Y1711350D01*
X-912063Y1705864D01*
X-909015Y1700987D01*
X-904900Y1696821D01*
X-900023Y1693773D01*
X-894537Y1691843D01*
X-888237Y1691182D01*
X-762762Y1691182D01*
X-756462Y1691843D01*
X-750976Y1693773D01*
X-746099Y1696821D01*
X-741984Y1700987D01*
X-738936Y1705864D01*
X-737006Y1711350D01*
X-736295Y1719275D01*
X-735533Y1723136D01*
X-733298Y1726488D01*
X-730046Y1728724D01*
X-726135Y1729435D01*
X-143103Y1729435D01*
X-138480Y1729689D01*
X-134061Y1730248D01*
X-129743Y1731213D01*
X-125476Y1732483D01*
X-117449Y1736242D01*
X-113690Y1738680D01*
X-110185Y1741373D01*
X-106730Y1744522D01*
X754735Y2605989D01*
X757986Y2608173D01*
X761898Y2608986D01*
X2667101Y2608986D01*
X2671013Y2608173D01*
X2674264Y2605989D01*
X2778201Y2502052D01*
X2780436Y2498750D01*
X2781198Y2494838D01*
X2781198Y-273913D01*
X2780436Y-277825D01*
X2778201Y-281127D01*
X2318664Y-740664D01*
X2315413Y-742848D01*
X2311501Y-743661D01*
X-2088337Y-743661D01*
X-2091893Y-742950D01*
X-2094992Y-741172D01*
X-2097227Y-738327D01*
X-2100173Y-732993D01*
X-2108657Y-721360D01*
X-2118512Y-710895D01*
X-2129637Y-701649D01*
X-2141778Y-693928D01*
X-2154834Y-687781D01*
X-2168550Y-683310D01*
X-2182723Y-680669D01*
X-2197100Y-679704D01*
X-2211476Y-680669D01*
X-2225649Y-683310D01*
X-2239365Y-687781D01*
X-2252421Y-693928D01*
X-2264562Y-701649D01*
X-2275687Y-710895D01*
X-2285542Y-721360D01*
X-2294026Y-732993D01*
X-2300986Y-745642D01*
X-2306269Y-759053D01*
X-2309876Y-773023D01*
X-2311654Y-787298D01*
X-2311654Y-801776D01*
X-2309876Y-816000D01*
X-2306269Y-830021D01*
X-2300986Y-843381D01*
X-2294026Y-856030D01*
X-2285542Y-867714D01*
X-2275687Y-878179D01*
X-2264562Y-887374D01*
X-2252421Y-895096D01*
X-2239365Y-901293D01*
X-2225649Y-905764D01*
X-2211476Y-908405D01*
G37*
G36*
X-2197100Y-401320D02*
G01*
X-2182723Y-400405D01*
X-2168550Y-397764D01*
X-2154834Y-393293D01*
X-2141778Y-387096D01*
X-2129637Y-379374D01*
X-2118512Y-370179D01*
X-2108657Y-359714D01*
X-2100173Y-348030D01*
X-2093214Y-335381D01*
X-2091537Y-331165D01*
X-2089353Y-327761D01*
X-2086051Y-325577D01*
X-2082088Y-324713D01*
X-190703Y-324713D01*
X-186080Y-324561D01*
X-181660Y-324002D01*
X-177342Y-323037D01*
X-173075Y-321665D01*
X-169011Y-319938D01*
X-165049Y-317906D01*
X-161290Y-315518D01*
X-157784Y-312877D01*
X-154330Y-309676D01*
X35864Y-119481D01*
X39014Y-116027D01*
X41706Y-112572D01*
X44094Y-108762D01*
X46126Y-104800D01*
X47853Y-100787D01*
X49174Y-96520D01*
X49987Y-92557D01*
X51714Y-88696D01*
X54762Y-85902D01*
X57759Y-84175D01*
X68478Y-75692D01*
X77978Y-65887D01*
X85953Y-55016D01*
X88188Y-52781D01*
X91033Y-51409D01*
X94132Y-50952D01*
X1486306Y-50952D01*
X1489811Y-51511D01*
X1492961Y-53390D01*
X1495196Y-56184D01*
X1501444Y-67614D01*
X1509522Y-78536D01*
X1519021Y-88341D01*
X1529740Y-96824D01*
X1541475Y-103784D01*
X1554022Y-109118D01*
X1567180Y-112674D01*
X1580692Y-114554D01*
X1594307Y-114554D01*
X1607820Y-112674D01*
X1620977Y-109118D01*
X1633524Y-103784D01*
X1645259Y-96824D01*
X1655978Y-88341D01*
X1665427Y-78536D01*
X1673555Y-67614D01*
X1680108Y-55575D01*
X1684985Y-42875D01*
X1688134Y-29616D01*
X1689506Y-16052D01*
X1689049Y-2387D01*
X1686814Y10972D01*
X1682750Y24079D01*
X1677009Y36372D01*
X1669694Y47904D01*
X1660855Y58318D01*
X1650746Y67513D01*
X1639519Y75133D01*
X1627327Y81330D01*
X1614474Y85801D01*
X1601114Y88544D01*
X1587500Y89458D01*
X1573885Y88544D01*
X1560525Y85801D01*
X1547622Y81330D01*
X1535480Y75133D01*
X1524203Y67513D01*
X1514094Y58318D01*
X1510893Y54457D01*
X1507388Y51866D01*
X1503121Y50952D01*
X147421Y50952D01*
X143510Y51663D01*
X140258Y53898D01*
X138023Y57200D01*
X137261Y61112D01*
X138023Y64973D01*
X140258Y68224D01*
X696264Y624281D01*
X699414Y627735D01*
X702106Y631240D01*
X704494Y635000D01*
X706526Y638911D01*
X708253Y643026D01*
X709574Y647242D01*
X710539Y651611D01*
X711098Y655980D01*
X711301Y660654D01*
X711301Y917854D01*
X711809Y920953D01*
X713181Y923747D01*
X715365Y925931D01*
X718921Y928624D01*
X727964Y937615D01*
X735584Y947877D01*
X741680Y959053D01*
X746150Y970940D01*
X748893Y983487D01*
X749808Y996543D01*
X749808Y1071981D01*
X748893Y1085088D01*
X746150Y1097584D01*
X741680Y1109522D01*
X735584Y1120698D01*
X727964Y1130909D01*
X718921Y1139901D01*
X708710Y1147572D01*
X697534Y1153617D01*
X685596Y1158138D01*
X673100Y1160830D01*
X660400Y1161745D01*
X647700Y1160830D01*
X635203Y1158138D01*
X623265Y1153617D01*
X612089Y1147572D01*
X601878Y1139901D01*
X592836Y1130909D01*
X585216Y1120698D01*
X579120Y1109522D01*
X574649Y1097584D01*
X571906Y1085088D01*
X570992Y1071981D01*
X570992Y996543D01*
X571906Y983487D01*
X574649Y970940D01*
X579120Y959053D01*
X585216Y947877D01*
X592836Y937615D01*
X601878Y928624D01*
X605434Y925931D01*
X607618Y923747D01*
X608990Y920953D01*
X609498Y917854D01*
X609498Y685698D01*
X608736Y681786D01*
X606501Y678535D01*
X30429Y102412D01*
X27686Y100431D01*
X24536Y99517D01*
X21183Y99669D01*
X13614Y101193D01*
X0Y102108D01*
X-13614Y101193D01*
X-26974Y98450D01*
X-39878Y94030D01*
X-52019Y87833D01*
X-63246Y80162D01*
X-73406Y71018D01*
X-82194Y60604D01*
X-89509Y49072D01*
X-95250Y36728D01*
X-99314Y23672D01*
X-101549Y10261D01*
X-102006Y-3352D01*
X-100685Y-16967D01*
X-97485Y-30226D01*
X-92608Y-42926D01*
X-86055Y-54965D01*
X-77978Y-65887D01*
X-73406Y-70561D01*
X-71272Y-73914D01*
X-70561Y-77774D01*
X-71323Y-81584D01*
X-73507Y-84836D01*
X-208635Y-219964D01*
X-211886Y-222148D01*
X-215798Y-222961D01*
X-2096516Y-222961D01*
X-2099665Y-222453D01*
X-2102510Y-221030D01*
X-2104745Y-218694D01*
X-2108657Y-213360D01*
X-2118512Y-202895D01*
X-2129637Y-193649D01*
X-2141778Y-185928D01*
X-2154834Y-179781D01*
X-2168550Y-175310D01*
X-2182723Y-172669D01*
X-2197100Y-171704D01*
X-2211476Y-172669D01*
X-2225649Y-175310D01*
X-2227732Y-176072D01*
X-2231440Y-176530D01*
X-2235047Y-175615D01*
X-2238095Y-173583D01*
X-2260549Y-151130D01*
X-2262784Y-147777D01*
X-2263495Y-143814D01*
X-2262682Y-139852D01*
X-2260346Y-136499D01*
X-2256942Y-134416D01*
X-2252929Y-133756D01*
X-2247900Y-135229D01*
X-2247900Y-83312D01*
X-2299919Y-83312D01*
X-2298446Y-87731D01*
X-2298852Y-91846D01*
X-2300935Y-95453D01*
X-2304237Y-97942D01*
X-2308199Y-98907D01*
X-2312263Y-98145D01*
X-2315718Y-95961D01*
X-2435301Y23672D01*
X-2437536Y26974D01*
X-2438298Y30886D01*
X-2438298Y2952038D01*
X-2437536Y2955950D01*
X-2435301Y2959252D01*
X-1772564Y3621989D01*
X-1769313Y3624173D01*
X-1765401Y3624986D01*
X-1206347Y3624986D01*
X-1202486Y3624173D01*
X-1199184Y3621989D01*
X-1197000Y3618687D01*
X-1196187Y3614826D01*
X-1196187Y3572916D01*
X-1195476Y3566566D01*
X-1193596Y3561130D01*
X-1190498Y3556254D01*
X-1186434Y3552190D01*
X-1181506Y3549040D01*
X-1176070Y3547211D01*
X-1169720Y3546449D01*
X-963879Y3546449D01*
X-957529Y3547211D01*
X-952093Y3549040D01*
X-947166Y3552190D01*
X-943102Y3556254D01*
X-940003Y3561130D01*
X-938123Y3566566D01*
X-937361Y3572916D01*
X-937361Y3614826D01*
X-936599Y3618687D01*
X-934415Y3621989D01*
X-931113Y3624173D01*
X-927201Y3624986D01*
X-822655Y3625087D01*
X-816508Y3625748D01*
X-807974Y3628085D01*
X-805434Y3629050D01*
X-799947Y3631895D01*
X-797610Y3633317D01*
X-792683Y3636924D01*
X-562152Y3854551D01*
X-557834Y3859123D01*
X-556158Y3861308D01*
X-552754Y3866438D01*
X-551484Y3868826D01*
X-548995Y3874515D01*
X-548182Y3877056D01*
X-546760Y3883050D01*
X-546354Y3885742D01*
X-545998Y3892092D01*
X-545998Y4329074D01*
X-545338Y4332681D01*
X-543509Y4335780D01*
X-540715Y4338015D01*
X-535381Y4340961D01*
X-523748Y4349445D01*
X-513232Y4359300D01*
X-504037Y4370425D01*
X-496316Y4382566D01*
X-490169Y4395571D01*
X-485698Y4409338D01*
X-483006Y4423511D01*
X-482092Y4437888D01*
X-483006Y4452213D01*
X-485698Y4466386D01*
X-490169Y4480153D01*
X-496316Y4493158D01*
X-504037Y4505350D01*
X-513232Y4516475D01*
X-523748Y4526330D01*
X-535381Y4534763D01*
X-548030Y4541774D01*
X-561441Y4547006D01*
X-575411Y4550664D01*
X-589686Y4552442D01*
X-604113Y4552442D01*
X-618388Y4550664D01*
X-632358Y4547006D01*
X-645769Y4541774D01*
X-658418Y4534763D01*
X-670052Y4526330D01*
X-680567Y4516475D01*
X-689762Y4505350D01*
X-697484Y4493158D01*
X-703630Y4480153D01*
X-708101Y4466386D01*
X-710793Y4452213D01*
X-711708Y4437888D01*
X-710793Y4423511D01*
X-708101Y4409338D01*
X-703630Y4395571D01*
X-697484Y4382566D01*
X-689762Y4370425D01*
X-680567Y4359300D01*
X-670052Y4349445D01*
X-658418Y4340961D01*
X-653084Y4338015D01*
X-650290Y4335780D01*
X-648462Y4332681D01*
X-647801Y4329074D01*
X-647801Y3918102D01*
X-648614Y3914089D01*
X-651002Y3910736D01*
X-842822Y3729583D01*
X-846023Y3727500D01*
X-849782Y3726738D01*
X-927201Y3726738D01*
X-931113Y3727551D01*
X-934415Y3729736D01*
X-936599Y3733088D01*
X-937361Y3736949D01*
X-937361Y3778808D01*
X-938123Y3785158D01*
X-940003Y3790594D01*
X-943102Y3795522D01*
X-947166Y3799535D01*
X-952093Y3802684D01*
X-957529Y3804513D01*
X-963879Y3805275D01*
X-987247Y3805275D01*
X-991463Y3806190D01*
X-994918Y3808729D01*
X-997000Y3812489D01*
X-997356Y3816705D01*
X-995934Y3820820D01*
X-992936Y3823868D01*
X-988314Y3826967D01*
X-976680Y3837025D01*
X-966317Y3848354D01*
X-957376Y3860800D01*
X-951331Y3871772D01*
X-1008735Y3871772D01*
X-1008735Y3815435D01*
X-1009497Y3811574D01*
X-1011682Y3808272D01*
X-1014984Y3806088D01*
X-1018895Y3805275D01*
X-1114755Y3805275D01*
X-1118616Y3806088D01*
X-1121918Y3808272D01*
X-1124153Y3811574D01*
X-1124915Y3815435D01*
X-1124915Y3871772D01*
X-1182268Y3871772D01*
X-1176223Y3860800D01*
X-1167282Y3848354D01*
X-1156919Y3837025D01*
X-1145336Y3826967D01*
X-1140663Y3823868D01*
X-1137716Y3820820D01*
X-1136294Y3816705D01*
X-1136650Y3812489D01*
X-1138732Y3808729D01*
X-1142187Y3806190D01*
X-1146352Y3805275D01*
X-1169720Y3805275D01*
X-1176070Y3804513D01*
X-1181506Y3802684D01*
X-1186434Y3799535D01*
X-1190498Y3795522D01*
X-1193596Y3790594D01*
X-1195476Y3785158D01*
X-1196187Y3778808D01*
X-1196187Y3736949D01*
X-1197000Y3733088D01*
X-1199184Y3729736D01*
X-1202486Y3727551D01*
X-1206347Y3726738D01*
X-1790496Y3726738D01*
X-1795119Y3726586D01*
X-1799539Y3726027D01*
X-1803857Y3725062D01*
X-1808124Y3723741D01*
X-1812188Y3721963D01*
X-1816150Y3719931D01*
X-1819910Y3717544D01*
X-1823415Y3714902D01*
X-1826869Y3711701D01*
X-2525064Y3013557D01*
X-2528214Y3010103D01*
X-2530906Y3006598D01*
X-2533294Y3002838D01*
X-2535326Y2998876D01*
X-2537053Y2994812D01*
X-2538374Y2990545D01*
X-2539339Y2986227D01*
X-2539898Y2981807D01*
X-2540101Y2977184D01*
X-2540101Y5740D01*
X-2539898Y1168D01*
X-2539339Y-3251D01*
X-2538374Y-7569D01*
X-2537053Y-11887D01*
X-2535326Y-15900D01*
X-2533294Y-19862D01*
X-2530906Y-23672D01*
X-2528214Y-27127D01*
X-2525064Y-30581D01*
X-2310028Y-245567D01*
X-2307996Y-248462D01*
X-2307082Y-251815D01*
X-2307386Y-255320D01*
X-2309876Y-265023D01*
X-2311654Y-279298D01*
X-2311654Y-293776D01*
X-2309876Y-308000D01*
X-2306269Y-322021D01*
X-2300986Y-335381D01*
X-2294026Y-348030D01*
X-2285542Y-359714D01*
X-2275687Y-370179D01*
X-2264562Y-379374D01*
X-2252421Y-387096D01*
X-2239365Y-393293D01*
X-2225649Y-397764D01*
X-2211476Y-400405D01*
G37*
G36*
X-2146300Y-135229D02*
G01*
X-2141778Y-133096D01*
X-2129637Y-125374D01*
X-2118512Y-116179D01*
X-2108657Y-105765D01*
X-2100173Y-94030D01*
X-2094280Y-83312D01*
X-2146300Y-83312D01*
G37*
G36*
X-463550Y-91694D02*
G01*
X-461975Y-91084D01*
X-450240Y-84124D01*
X-439521Y-75641D01*
X-430022Y-65836D01*
X-421944Y-54914D01*
X-416204Y-44399D01*
X-463550Y-44399D01*
G37*
G36*
X-552450Y-91694D02*
G01*
X-552450Y-44399D01*
X-599795Y-44399D01*
X-594055Y-54914D01*
X-585978Y-65836D01*
X-576478Y-75641D01*
X-565759Y-84124D01*
X-554024Y-91084D01*
G37*
G36*
X2628900Y-20320D02*
G01*
X2643276Y-19405D01*
X2657449Y-16764D01*
X2671165Y-12293D01*
X2684221Y-6096D01*
X2696362Y1625D01*
X2707487Y10820D01*
X2717342Y21285D01*
X2725826Y32969D01*
X2732786Y45618D01*
X2738069Y58978D01*
X2741676Y72999D01*
X2743454Y87223D01*
X2743454Y101701D01*
X2741676Y115976D01*
X2738069Y129946D01*
X2732786Y143357D01*
X2725826Y156006D01*
X2717342Y167640D01*
X2707487Y178104D01*
X2696362Y187350D01*
X2684221Y195072D01*
X2671165Y201218D01*
X2657449Y205689D01*
X2643276Y208330D01*
X2628900Y209296D01*
X2614523Y208330D01*
X2600350Y205689D01*
X2586634Y201218D01*
X2573578Y195072D01*
X2561437Y187350D01*
X2550312Y178104D01*
X2540457Y167640D01*
X2531973Y156006D01*
X2525014Y143357D01*
X2519730Y129946D01*
X2516124Y115976D01*
X2514346Y101701D01*
X2514346Y87223D01*
X2516124Y72999D01*
X2519730Y58978D01*
X2525014Y45618D01*
X2531973Y32969D01*
X2540457Y21285D01*
X2550312Y10820D01*
X2561437Y1625D01*
X2573578Y-6096D01*
X2586634Y-12293D01*
X2600350Y-16764D01*
X2614523Y-19405D01*
G37*
G36*
X-2299919Y18288D02*
G01*
X-2247900Y18288D01*
X-2247900Y70104D01*
X-2252421Y68072D01*
X-2264562Y60350D01*
X-2275687Y51104D01*
X-2285542Y40640D01*
X-2294026Y28956D01*
G37*
G36*
X-2146300Y18288D02*
G01*
X-2094280Y18288D01*
X-2100173Y28956D01*
X-2108657Y40640D01*
X-2118512Y51104D01*
X-2129637Y60350D01*
X-2141778Y68072D01*
X-2146300Y70104D01*
G37*
G36*
X-599643Y44500D02*
G01*
X-552450Y44500D01*
X-552450Y91694D01*
X-560019Y87833D01*
X-571296Y80213D01*
X-581406Y71018D01*
X-590194Y60604D01*
X-597509Y49072D01*
G37*
G36*
X-463550Y44500D02*
G01*
X-416356Y44500D01*
X-418490Y49072D01*
X-425805Y60604D01*
X-434644Y71018D01*
X-444754Y80213D01*
X-455980Y87833D01*
X-463550Y91694D01*
G37*
G36*
X-2197100Y106680D02*
G01*
X-2182723Y107594D01*
X-2168550Y110235D01*
X-2154834Y114706D01*
X-2141778Y120904D01*
X-2129637Y128625D01*
X-2118512Y137820D01*
X-2108657Y148285D01*
X-2100173Y159969D01*
X-2093214Y172618D01*
X-2087930Y185978D01*
X-2084324Y199999D01*
X-2082546Y214223D01*
X-2082546Y228701D01*
X-2084324Y242976D01*
X-2087930Y256946D01*
X-2093214Y270357D01*
X-2100173Y283006D01*
X-2108657Y294640D01*
X-2118512Y305104D01*
X-2129637Y314350D01*
X-2141778Y322072D01*
X-2154834Y328218D01*
X-2168550Y332689D01*
X-2182723Y335330D01*
X-2197100Y336296D01*
X-2211476Y335330D01*
X-2225649Y332689D01*
X-2239365Y328218D01*
X-2252421Y322072D01*
X-2264562Y314350D01*
X-2275687Y305104D01*
X-2285542Y294640D01*
X-2294026Y283006D01*
X-2300986Y270357D01*
X-2306269Y256946D01*
X-2309876Y242976D01*
X-2311654Y228701D01*
X-2311654Y214223D01*
X-2309876Y199999D01*
X-2306269Y185978D01*
X-2300986Y172618D01*
X-2294026Y159969D01*
X-2285542Y148285D01*
X-2275687Y137820D01*
X-2264562Y128625D01*
X-2252421Y120904D01*
X-2239365Y114706D01*
X-2225649Y110235D01*
X-2211476Y107594D01*
G37*
G36*
X2628900Y233679D02*
G01*
X2643276Y234594D01*
X2657449Y237236D01*
X2671165Y241706D01*
X2684221Y247904D01*
X2696362Y255625D01*
X2707487Y264820D01*
X2717342Y275285D01*
X2725826Y286969D01*
X2732786Y299618D01*
X2738069Y312978D01*
X2741676Y326999D01*
X2743454Y341223D01*
X2743454Y355701D01*
X2741676Y369976D01*
X2738069Y383946D01*
X2732786Y397357D01*
X2725826Y410006D01*
X2717342Y421640D01*
X2707487Y432104D01*
X2696362Y441350D01*
X2684221Y449072D01*
X2671165Y455218D01*
X2657449Y459689D01*
X2643276Y462330D01*
X2628900Y463296D01*
X2614523Y462330D01*
X2600350Y459689D01*
X2586634Y455218D01*
X2573578Y449072D01*
X2561437Y441350D01*
X2550312Y432104D01*
X2540457Y421640D01*
X2531973Y410006D01*
X2525014Y397357D01*
X2519730Y383946D01*
X2516124Y369976D01*
X2514346Y355701D01*
X2514346Y341223D01*
X2516124Y326999D01*
X2519730Y312978D01*
X2525014Y299618D01*
X2531973Y286969D01*
X2540457Y275285D01*
X2550312Y264820D01*
X2561437Y255625D01*
X2573578Y247904D01*
X2586634Y241706D01*
X2600350Y237236D01*
X2614523Y234594D01*
G37*
G36*
X-2197100Y360680D02*
G01*
X-2182723Y361594D01*
X-2168550Y364236D01*
X-2154834Y368706D01*
X-2141778Y374904D01*
X-2129637Y382625D01*
X-2118512Y391820D01*
X-2108657Y402285D01*
X-2100173Y413969D01*
X-2097227Y419303D01*
X-2094992Y422097D01*
X-2091893Y423875D01*
X-2088337Y424586D01*
X-1349603Y424586D01*
X-1344980Y424738D01*
X-1340561Y425297D01*
X-1336243Y426262D01*
X-1331976Y427634D01*
X-1327912Y429361D01*
X-1323949Y431393D01*
X-1320190Y433781D01*
X-1316685Y436422D01*
X-1313230Y439623D01*
X-844803Y908100D01*
X-841197Y910336D01*
X-836930Y911047D01*
X-825500Y910234D01*
X-812800Y911098D01*
X-800354Y913790D01*
X-788466Y918210D01*
X-777290Y924356D01*
X-767080Y931976D01*
X-758088Y940968D01*
X-750468Y951179D01*
X-744372Y962355D01*
X-739952Y974242D01*
X-737209Y986688D01*
X-736346Y999388D01*
X-737209Y1012088D01*
X-739952Y1024534D01*
X-744372Y1036370D01*
X-750468Y1047546D01*
X-758088Y1057757D01*
X-767080Y1066800D01*
X-777290Y1074369D01*
X-788466Y1080516D01*
X-800354Y1084935D01*
X-812800Y1087628D01*
X-825500Y1088542D01*
X-838200Y1087628D01*
X-850646Y1084935D01*
X-862533Y1080516D01*
X-873709Y1074369D01*
X-883919Y1066800D01*
X-892911Y1057757D01*
X-900531Y1047546D01*
X-906627Y1036370D01*
X-911047Y1024534D01*
X-913790Y1012088D01*
X-914653Y999388D01*
X-913841Y987907D01*
X-914501Y983640D01*
X-916787Y980084D01*
X-1367536Y529336D01*
X-1370787Y527151D01*
X-1374698Y526338D01*
X-2088337Y526338D01*
X-2091893Y527050D01*
X-2094992Y528828D01*
X-2097227Y531672D01*
X-2100173Y537006D01*
X-2108657Y548640D01*
X-2118512Y559104D01*
X-2129637Y568350D01*
X-2141778Y576072D01*
X-2154834Y582218D01*
X-2168550Y586689D01*
X-2182723Y589330D01*
X-2197100Y590296D01*
X-2211476Y589330D01*
X-2225649Y586689D01*
X-2239365Y582218D01*
X-2252421Y576072D01*
X-2264562Y568350D01*
X-2275687Y559104D01*
X-2285542Y548640D01*
X-2294026Y537006D01*
X-2300986Y524357D01*
X-2306269Y510946D01*
X-2309876Y496976D01*
X-2311654Y482701D01*
X-2311654Y468223D01*
X-2309876Y453999D01*
X-2306269Y439978D01*
X-2300986Y426618D01*
X-2294026Y413969D01*
X-2285542Y402285D01*
X-2275687Y391820D01*
X-2264562Y382625D01*
X-2252421Y374904D01*
X-2239365Y368706D01*
X-2225649Y364236D01*
X-2211476Y361594D01*
G37*
G36*
X2628900Y487680D02*
G01*
X2643276Y488594D01*
X2657449Y491235D01*
X2671165Y495706D01*
X2684221Y501904D01*
X2696362Y509625D01*
X2707487Y518820D01*
X2717342Y529285D01*
X2725826Y540969D01*
X2732786Y553618D01*
X2738069Y566978D01*
X2741676Y580999D01*
X2743454Y595223D01*
X2743454Y609701D01*
X2741676Y623976D01*
X2738069Y637946D01*
X2732786Y651357D01*
X2725826Y664006D01*
X2717342Y675640D01*
X2707487Y686104D01*
X2696362Y695350D01*
X2684221Y703072D01*
X2671165Y709218D01*
X2657449Y713689D01*
X2643276Y716330D01*
X2628900Y717296D01*
X2614523Y716330D01*
X2600350Y713689D01*
X2586634Y709218D01*
X2573578Y703072D01*
X2561437Y695350D01*
X2550312Y686104D01*
X2540457Y675640D01*
X2531973Y664006D01*
X2525014Y651357D01*
X2519730Y637946D01*
X2516124Y623976D01*
X2514346Y609701D01*
X2514346Y595223D01*
X2516124Y580999D01*
X2519730Y566978D01*
X2525014Y553618D01*
X2531973Y540969D01*
X2540457Y529285D01*
X2550312Y518820D01*
X2561437Y509625D01*
X2573578Y501904D01*
X2586634Y495706D01*
X2600350Y491235D01*
X2614523Y488594D01*
G37*
G36*
X1580692Y543407D02*
G01*
X1594307Y543407D01*
X1607820Y545236D01*
X1620977Y548792D01*
X1633524Y554177D01*
X1645259Y561086D01*
X1655978Y569569D01*
X1665478Y579374D01*
X1673555Y590296D01*
X1680108Y602335D01*
X1684985Y615035D01*
X1688185Y628294D01*
X1689506Y641858D01*
X1689049Y655523D01*
X1686814Y668934D01*
X1682750Y681990D01*
X1677466Y693369D01*
X1676501Y697687D01*
X1676501Y975715D01*
X1677111Y979119D01*
X1678736Y982065D01*
X1681327Y984402D01*
X1684528Y985621D01*
X1688896Y986586D01*
X1700834Y991108D01*
X1712010Y997203D01*
X1722221Y1004824D01*
X1731264Y1013815D01*
X1738884Y1024077D01*
X1744980Y1035253D01*
X1749450Y1047140D01*
X1752193Y1059688D01*
X1753057Y1072388D01*
X1752193Y1085088D01*
X1749450Y1097584D01*
X1744980Y1109522D01*
X1738884Y1120698D01*
X1731264Y1130909D01*
X1722221Y1139901D01*
X1712010Y1147572D01*
X1700834Y1153617D01*
X1688896Y1158138D01*
X1676400Y1160830D01*
X1663344Y1161796D01*
X1587855Y1161796D01*
X1574800Y1160830D01*
X1562303Y1158138D01*
X1550365Y1153617D01*
X1539189Y1147572D01*
X1528978Y1139901D01*
X1519936Y1130909D01*
X1512316Y1120698D01*
X1506220Y1109522D01*
X1501749Y1097584D01*
X1499006Y1085088D01*
X1498142Y1072388D01*
X1499006Y1059688D01*
X1501749Y1047140D01*
X1506220Y1035253D01*
X1512316Y1024077D01*
X1519936Y1013815D01*
X1528978Y1004824D01*
X1539189Y997203D01*
X1550365Y991108D01*
X1562303Y986586D01*
X1566672Y985621D01*
X1569872Y984402D01*
X1572463Y982065D01*
X1574088Y979119D01*
X1574698Y975715D01*
X1574698Y754938D01*
X1574088Y751484D01*
X1572412Y748487D01*
X1569770Y746201D01*
X1566570Y744982D01*
X1560525Y743712D01*
X1547622Y739292D01*
X1535480Y733094D01*
X1524254Y725424D01*
X1514094Y716280D01*
X1505305Y705866D01*
X1497990Y694334D01*
X1496822Y691794D01*
X1494586Y688644D01*
X1491335Y686612D01*
X1487576Y685952D01*
X1104798Y685952D01*
X1100886Y686663D01*
X1097635Y688898D01*
X968298Y818235D01*
X966063Y821486D01*
X965301Y825347D01*
X965301Y917854D01*
X965809Y920953D01*
X967181Y923747D01*
X969365Y925931D01*
X972921Y928624D01*
X981964Y937615D01*
X989584Y947877D01*
X995680Y959053D01*
X1000150Y970940D01*
X1002893Y983487D01*
X1003808Y996543D01*
X1003808Y1071981D01*
X1002893Y1085088D01*
X1000150Y1097584D01*
X995680Y1109522D01*
X989584Y1120698D01*
X981964Y1130909D01*
X972921Y1139901D01*
X969365Y1142593D01*
X967181Y1144778D01*
X965809Y1147622D01*
X965301Y1150670D01*
X965301Y1802180D01*
X965809Y1805228D01*
X967181Y1808073D01*
X969416Y1810308D01*
X973582Y1813407D01*
X983792Y1823262D01*
X992632Y1834438D01*
X999998Y1846580D01*
X1005738Y1859584D01*
X1009802Y1873148D01*
X1012088Y1887169D01*
X1012545Y1901393D01*
X1011174Y1915515D01*
X1008024Y1929434D01*
X1003096Y1942795D01*
X996543Y1955393D01*
X988415Y1967026D01*
X978865Y1977542D01*
X968044Y1986737D01*
X956106Y1994509D01*
X943305Y2000605D01*
X929843Y2005126D01*
X915873Y2007819D01*
X901700Y2008784D01*
X887526Y2007819D01*
X873556Y2005126D01*
X860094Y2000605D01*
X847293Y1994509D01*
X835355Y1986737D01*
X824534Y1977542D01*
X814984Y1967026D01*
X806856Y1955393D01*
X800303Y1942795D01*
X795375Y1929434D01*
X792226Y1915515D01*
X790854Y1901393D01*
X791311Y1887169D01*
X793597Y1873148D01*
X797661Y1859584D01*
X803402Y1846580D01*
X810768Y1834438D01*
X819607Y1823262D01*
X829818Y1813407D01*
X841197Y1804974D01*
X853592Y1797913D01*
X857148Y1796542D01*
X860501Y1794357D01*
X862685Y1791004D01*
X863498Y1787093D01*
X863498Y1150670D01*
X862990Y1147622D01*
X861618Y1144778D01*
X859434Y1142593D01*
X855878Y1139901D01*
X846836Y1130909D01*
X839216Y1120698D01*
X833119Y1109522D01*
X828649Y1097584D01*
X825906Y1085088D01*
X824992Y1071981D01*
X824992Y996543D01*
X825906Y983487D01*
X828649Y970940D01*
X833119Y959053D01*
X839216Y947877D01*
X846836Y937615D01*
X855878Y928624D01*
X859434Y925931D01*
X861618Y923747D01*
X862990Y920953D01*
X863498Y917854D01*
X863498Y800354D01*
X863701Y795680D01*
X864260Y791311D01*
X865225Y786942D01*
X866546Y782726D01*
X868273Y778611D01*
X870305Y774700D01*
X872693Y770940D01*
X875385Y767384D01*
X878535Y763981D01*
X1043330Y599135D01*
X1046784Y596036D01*
X1050290Y593293D01*
X1054049Y590905D01*
X1058011Y588822D01*
X1062075Y587197D01*
X1066342Y585876D01*
X1070660Y584911D01*
X1075080Y584301D01*
X1079703Y584047D01*
X1500936Y584047D01*
X1504035Y583590D01*
X1506829Y582218D01*
X1519021Y569569D01*
X1529740Y561086D01*
X1541475Y554177D01*
X1554022Y548792D01*
X1567180Y545236D01*
G37*
G36*
X-514807Y556107D02*
G01*
X-501192Y556107D01*
X-487680Y557936D01*
X-474522Y561492D01*
X-461975Y566877D01*
X-450240Y573786D01*
X-439521Y582269D01*
X-430022Y592074D01*
X-422046Y602945D01*
X-419760Y605180D01*
X-416966Y606552D01*
X-413867Y607060D01*
X-94132Y607060D01*
X-91033Y606552D01*
X-88239Y605180D01*
X-85953Y602945D01*
X-77978Y592074D01*
X-68478Y582269D01*
X-57759Y573786D01*
X-46024Y566877D01*
X-33477Y561492D01*
X-20320Y557936D01*
X-6807Y556107D01*
X6807Y556107D01*
X20320Y557936D01*
X33477Y561492D01*
X46024Y566877D01*
X57759Y573786D01*
X68478Y582269D01*
X77978Y592074D01*
X86055Y602996D01*
X92608Y615035D01*
X97485Y627735D01*
X100685Y640994D01*
X102006Y654558D01*
X101549Y668223D01*
X99314Y681634D01*
X95250Y694690D01*
X89509Y707034D01*
X82194Y718566D01*
X73406Y728980D01*
X63246Y738124D01*
X52019Y745794D01*
X39878Y751992D01*
X26974Y756412D01*
X13614Y759155D01*
X0Y760069D01*
X-13614Y759155D01*
X-21183Y757631D01*
X-24536Y757428D01*
X-27686Y758393D01*
X-30429Y760323D01*
X-683056Y1413002D01*
X-686460Y1416202D01*
X-690016Y1418844D01*
X-693724Y1421231D01*
X-697687Y1423263D01*
X-701802Y1425041D01*
X-706018Y1426362D01*
X-710336Y1427327D01*
X-714756Y1427886D01*
X-719429Y1428038D01*
X-1054201Y1428038D01*
X-1058113Y1428851D01*
X-1061364Y1431036D01*
X-1279601Y1649272D01*
X-1281836Y1652574D01*
X-1282598Y1656486D01*
X-1282598Y1702307D01*
X-1282090Y1705406D01*
X-1280718Y1708200D01*
X-1278534Y1710385D01*
X-1275080Y1712925D01*
X-1266088Y1721967D01*
X-1258468Y1732178D01*
X-1252372Y1743354D01*
X-1247952Y1755241D01*
X-1245209Y1767636D01*
X-1244346Y1780336D01*
X-1245209Y1793036D01*
X-1247952Y1805533D01*
X-1252372Y1817370D01*
X-1258468Y1828546D01*
X-1266088Y1838807D01*
X-1275080Y1847748D01*
X-1285290Y1855419D01*
X-1296466Y1861515D01*
X-1308354Y1865934D01*
X-1320800Y1868627D01*
X-1333500Y1869541D01*
X-1346200Y1868627D01*
X-1358646Y1865934D01*
X-1370533Y1861515D01*
X-1381709Y1855419D01*
X-1391920Y1847748D01*
X-1400911Y1838807D01*
X-1408531Y1828546D01*
X-1414627Y1817370D01*
X-1419047Y1805533D01*
X-1421790Y1793036D01*
X-1422654Y1780336D01*
X-1421790Y1767636D01*
X-1419047Y1755241D01*
X-1414627Y1743354D01*
X-1408531Y1732178D01*
X-1400911Y1721967D01*
X-1391920Y1712925D01*
X-1388465Y1710385D01*
X-1386281Y1708200D01*
X-1384909Y1705406D01*
X-1384401Y1702307D01*
X-1384401Y1656486D01*
X-1385163Y1652574D01*
X-1387398Y1649272D01*
X-1618335Y1418336D01*
X-1621586Y1416151D01*
X-1625498Y1415338D01*
X-1651101Y1415338D01*
X-1655013Y1416151D01*
X-1658264Y1418336D01*
X-2181301Y1941423D01*
X-2183536Y1944674D01*
X-2184298Y1948586D01*
X-2184298Y2888538D01*
X-2183536Y2892450D01*
X-2181301Y2895752D01*
X-1785264Y3291789D01*
X-1782013Y3293973D01*
X-1778101Y3294786D01*
X-678230Y3294786D01*
X-674776Y3294176D01*
X-671728Y3292449D01*
X-669493Y3289808D01*
X-668375Y3287928D01*
X-659892Y3277209D01*
X-650087Y3267659D01*
X-639114Y3259632D01*
X-627176Y3253028D01*
X-614426Y3248152D01*
X-601167Y3245002D01*
X-587603Y3243630D01*
X-573989Y3244138D01*
X-560527Y3246374D01*
X-547522Y3250438D01*
X-535127Y3256178D01*
X-523646Y3263493D01*
X-513232Y3272282D01*
X-504088Y3282442D01*
X-496366Y3293668D01*
X-490220Y3305759D01*
X-485749Y3318713D01*
X-483006Y3332073D01*
X-482092Y3345687D01*
X-483006Y3359302D01*
X-485749Y3372612D01*
X-490220Y3385565D01*
X-496366Y3397656D01*
X-504088Y3408883D01*
X-513232Y3419043D01*
X-523646Y3427831D01*
X-535127Y3435146D01*
X-547522Y3440937D01*
X-560527Y3444951D01*
X-573989Y3447237D01*
X-587603Y3447694D01*
X-601167Y3446373D01*
X-614426Y3443173D01*
X-627176Y3438296D01*
X-639114Y3431692D01*
X-650087Y3423665D01*
X-659892Y3414115D01*
X-668375Y3403396D01*
X-669493Y3401517D01*
X-671728Y3398926D01*
X-674776Y3397148D01*
X-678230Y3396538D01*
X-1803196Y3396538D01*
X-1807819Y3396386D01*
X-1812239Y3395827D01*
X-1816557Y3394862D01*
X-1820824Y3393541D01*
X-1824888Y3391763D01*
X-1828850Y3389731D01*
X-1832610Y3387344D01*
X-1836115Y3384702D01*
X-1839569Y3381501D01*
X-2271064Y2950057D01*
X-2274214Y2946603D01*
X-2276906Y2943098D01*
X-2279294Y2939338D01*
X-2281326Y2935376D01*
X-2283053Y2931312D01*
X-2284374Y2927045D01*
X-2285339Y2922727D01*
X-2285898Y2918307D01*
X-2286101Y2913684D01*
X-2286101Y1923440D01*
X-2285898Y1918868D01*
X-2285339Y1914448D01*
X-2284374Y1910130D01*
X-2283053Y1905812D01*
X-2281326Y1901799D01*
X-2279294Y1897837D01*
X-2276906Y1894027D01*
X-2274214Y1890572D01*
X-2271064Y1887118D01*
X-1712569Y1328623D01*
X-1709115Y1325422D01*
X-1705610Y1322781D01*
X-1701850Y1320393D01*
X-1697888Y1318361D01*
X-1693824Y1316634D01*
X-1689557Y1315262D01*
X-1685239Y1314297D01*
X-1680819Y1313738D01*
X-1676196Y1313586D01*
X-1600403Y1313586D01*
X-1595780Y1313738D01*
X-1591360Y1314297D01*
X-1587042Y1315262D01*
X-1582775Y1316634D01*
X-1578711Y1318361D01*
X-1574749Y1320393D01*
X-1570990Y1322781D01*
X-1567484Y1325422D01*
X-1564030Y1328623D01*
X-1340662Y1551990D01*
X-1337411Y1554175D01*
X-1333500Y1554988D01*
X-1329588Y1554175D01*
X-1326337Y1551990D01*
X-1115669Y1341323D01*
X-1112215Y1338122D01*
X-1108710Y1335481D01*
X-1104950Y1333093D01*
X-1100988Y1331061D01*
X-1096924Y1329334D01*
X-1092657Y1327962D01*
X-1088339Y1326997D01*
X-1083919Y1326438D01*
X-1079296Y1326286D01*
X-744474Y1326286D01*
X-740613Y1325473D01*
X-737311Y1323289D01*
X-140258Y726186D01*
X-138074Y722934D01*
X-137261Y719074D01*
X-138074Y715162D01*
X-140258Y711860D01*
X-143560Y709625D01*
X-147421Y708914D01*
X-414070Y708914D01*
X-417423Y709472D01*
X-420370Y711047D01*
X-422656Y713536D01*
X-425805Y718566D01*
X-434593Y728980D01*
X-444754Y738124D01*
X-455980Y745794D01*
X-468122Y751992D01*
X-481025Y756412D01*
X-494385Y759155D01*
X-508000Y760069D01*
X-521614Y759155D01*
X-534974Y756412D01*
X-547878Y751992D01*
X-560019Y745794D01*
X-571246Y738124D01*
X-581406Y728980D01*
X-590194Y718566D01*
X-597509Y707034D01*
X-603250Y694690D01*
X-607314Y681634D01*
X-609549Y668223D01*
X-610006Y654558D01*
X-608685Y640994D01*
X-605485Y627735D01*
X-600608Y615035D01*
X-594055Y602996D01*
X-585978Y592074D01*
X-576478Y582269D01*
X-565759Y573786D01*
X-554024Y566877D01*
X-541477Y561492D01*
X-528320Y557936D01*
G37*
G36*
X-2197100Y614680D02*
G01*
X-2182723Y615594D01*
X-2168550Y618236D01*
X-2154834Y622706D01*
X-2141778Y628904D01*
X-2129637Y636625D01*
X-2118512Y645820D01*
X-2108657Y656285D01*
X-2100173Y667969D01*
X-2093214Y680618D01*
X-2087930Y693978D01*
X-2084324Y707999D01*
X-2082546Y722223D01*
X-2082546Y736701D01*
X-2084324Y750976D01*
X-2087930Y764946D01*
X-2093214Y778357D01*
X-2100173Y791006D01*
X-2108657Y802640D01*
X-2118512Y813104D01*
X-2129637Y822350D01*
X-2141778Y830071D01*
X-2154834Y836218D01*
X-2168550Y840689D01*
X-2182723Y843330D01*
X-2197100Y844296D01*
X-2211476Y843330D01*
X-2225649Y840689D01*
X-2239365Y836218D01*
X-2252421Y830071D01*
X-2264562Y822350D01*
X-2275687Y813104D01*
X-2285542Y802640D01*
X-2294026Y791006D01*
X-2300986Y778357D01*
X-2306269Y764946D01*
X-2309876Y750976D01*
X-2311654Y736701D01*
X-2311654Y722223D01*
X-2309876Y707999D01*
X-2306269Y693978D01*
X-2300986Y680618D01*
X-2294026Y667969D01*
X-2285542Y656285D01*
X-2275687Y645820D01*
X-2264562Y636625D01*
X-2252421Y628904D01*
X-2239365Y622706D01*
X-2225649Y618236D01*
X-2211476Y615594D01*
G37*
G36*
X1898650Y683006D02*
G01*
X1898650Y730300D01*
X1851304Y730300D01*
X1857044Y719785D01*
X1865122Y708863D01*
X1874621Y699058D01*
X1885340Y690575D01*
X1897024Y683615D01*
G37*
G36*
X1987550Y683006D02*
G01*
X1989124Y683615D01*
X2000859Y690575D01*
X2011578Y699058D01*
X2021027Y708863D01*
X2029155Y719785D01*
X2034895Y730300D01*
X1987550Y730300D01*
G37*
G36*
X2628900Y741680D02*
G01*
X2643276Y742594D01*
X2657449Y745236D01*
X2671165Y749706D01*
X2684221Y755904D01*
X2696362Y763625D01*
X2707487Y772820D01*
X2717342Y783285D01*
X2725826Y794969D01*
X2732786Y807618D01*
X2738069Y820978D01*
X2741676Y834999D01*
X2743454Y849223D01*
X2743454Y863701D01*
X2741676Y877976D01*
X2738069Y891946D01*
X2732786Y905357D01*
X2725826Y918006D01*
X2717342Y929640D01*
X2707487Y940104D01*
X2696362Y949350D01*
X2684221Y957071D01*
X2671165Y963218D01*
X2657449Y967689D01*
X2643276Y970330D01*
X2628900Y971296D01*
X2614523Y970330D01*
X2600350Y967689D01*
X2586634Y963218D01*
X2573578Y957071D01*
X2561437Y949350D01*
X2550312Y940104D01*
X2540457Y929640D01*
X2531973Y918006D01*
X2525014Y905357D01*
X2519730Y891946D01*
X2516124Y877976D01*
X2514346Y863701D01*
X2514346Y849223D01*
X2516124Y834999D01*
X2519730Y820978D01*
X2525014Y807618D01*
X2531973Y794969D01*
X2540457Y783285D01*
X2550312Y772820D01*
X2561437Y763625D01*
X2573578Y755904D01*
X2586634Y749706D01*
X2600350Y745236D01*
X2614523Y742594D01*
G37*
G36*
X1851406Y819200D02*
G01*
X1898650Y819200D01*
X1898650Y866394D01*
X1891080Y862533D01*
X1879803Y854862D01*
X1869693Y845718D01*
X1860905Y835304D01*
X1853590Y823772D01*
G37*
G36*
X1987550Y819200D02*
G01*
X2034743Y819200D01*
X2032609Y823772D01*
X2025294Y835304D01*
X2016455Y845718D01*
X2006346Y854862D01*
X1995119Y862533D01*
X1987550Y866394D01*
G37*
G36*
X-2197100Y868680D02*
G01*
X-2182723Y869594D01*
X-2168550Y872236D01*
X-2154834Y876706D01*
X-2141778Y882903D01*
X-2129637Y890625D01*
X-2118512Y899820D01*
X-2108657Y910285D01*
X-2100173Y921969D01*
X-2093214Y934618D01*
X-2087930Y947978D01*
X-2084324Y961999D01*
X-2082546Y976223D01*
X-2082546Y990701D01*
X-2084324Y1004976D01*
X-2087930Y1018946D01*
X-2093214Y1032357D01*
X-2100173Y1045006D01*
X-2108657Y1056640D01*
X-2118512Y1067104D01*
X-2129637Y1076350D01*
X-2141778Y1084072D01*
X-2154834Y1090218D01*
X-2168550Y1094689D01*
X-2182723Y1097330D01*
X-2197100Y1098296D01*
X-2211476Y1097330D01*
X-2225649Y1094689D01*
X-2239365Y1090218D01*
X-2252421Y1084072D01*
X-2264562Y1076350D01*
X-2275687Y1067104D01*
X-2285542Y1056640D01*
X-2294026Y1045006D01*
X-2300986Y1032357D01*
X-2306269Y1018946D01*
X-2309876Y1004976D01*
X-2311654Y990701D01*
X-2311654Y976223D01*
X-2309876Y961999D01*
X-2306269Y947978D01*
X-2300986Y934618D01*
X-2294026Y921969D01*
X-2285542Y910285D01*
X-2275687Y899820D01*
X-2264562Y890625D01*
X-2252421Y882903D01*
X-2239365Y876706D01*
X-2225649Y872236D01*
X-2211476Y869594D01*
G37*
G36*
X1168400Y906780D02*
G01*
X1181100Y907694D01*
X1193596Y910336D01*
X1205534Y914806D01*
X1216710Y921003D01*
X1226921Y928624D01*
X1235964Y937615D01*
X1243584Y947826D01*
X1249680Y959053D01*
X1254150Y970940D01*
X1256842Y983437D01*
X1257808Y996543D01*
X1257808Y1071981D01*
X1256842Y1085088D01*
X1254150Y1097483D01*
X1249680Y1109522D01*
X1243584Y1120698D01*
X1235964Y1130909D01*
X1226921Y1139850D01*
X1223365Y1142593D01*
X1221181Y1144778D01*
X1219758Y1147622D01*
X1219301Y1150670D01*
X1219301Y1798320D01*
X1219758Y1801469D01*
X1221181Y1804212D01*
X1223365Y1806549D01*
X1232662Y1813407D01*
X1242872Y1823262D01*
X1251712Y1834438D01*
X1256334Y1842109D01*
X1258620Y1844700D01*
X1261618Y1846376D01*
X1265021Y1846986D01*
X1320596Y1846986D01*
X1325219Y1847138D01*
X1329639Y1847697D01*
X1333957Y1848662D01*
X1338224Y1850034D01*
X1342288Y1851761D01*
X1346250Y1853793D01*
X1350010Y1856181D01*
X1353515Y1858873D01*
X1356969Y1862023D01*
X1734718Y2239822D01*
X1737664Y2241804D01*
X1741068Y2242769D01*
X1758492Y2240483D01*
X1772107Y2240483D01*
X1785620Y2242312D01*
X1798777Y2245969D01*
X1811324Y2251202D01*
X1823059Y2258212D01*
X1833778Y2266696D01*
X1843278Y2276500D01*
X1851355Y2287473D01*
X1857908Y2299411D01*
X1862785Y2312162D01*
X1865985Y2325370D01*
X1867306Y2338984D01*
X1866849Y2352598D01*
X1864614Y2366010D01*
X1860550Y2379065D01*
X1854809Y2391410D01*
X1847494Y2402941D01*
X1838706Y2413304D01*
X1828546Y2422499D01*
X1817319Y2430221D01*
X1805178Y2436317D01*
X1792274Y2440838D01*
X1778914Y2443530D01*
X1765300Y2444496D01*
X1751685Y2443530D01*
X1738325Y2440838D01*
X1725422Y2436317D01*
X1713280Y2430221D01*
X1702054Y2422499D01*
X1691893Y2413304D01*
X1683105Y2402941D01*
X1675790Y2391410D01*
X1670050Y2379065D01*
X1665986Y2366010D01*
X1663750Y2352598D01*
X1663293Y2338984D01*
X1664614Y2325370D01*
X1665579Y2321458D01*
X1665782Y2318004D01*
X1664868Y2314702D01*
X1662887Y2311958D01*
X1302664Y1951736D01*
X1299413Y1949551D01*
X1295501Y1948738D01*
X1265174Y1948738D01*
X1261567Y1949450D01*
X1258468Y1951380D01*
X1247495Y1967026D01*
X1237945Y1977542D01*
X1227124Y1986737D01*
X1215186Y1994509D01*
X1202385Y2000605D01*
X1188923Y2005126D01*
X1174953Y2007819D01*
X1160780Y2008784D01*
X1146606Y2007819D01*
X1132636Y2005126D01*
X1119174Y2000605D01*
X1106373Y1994509D01*
X1094435Y1986737D01*
X1083614Y1977542D01*
X1074064Y1967026D01*
X1065936Y1955393D01*
X1059383Y1942795D01*
X1054455Y1929434D01*
X1051306Y1915515D01*
X1049934Y1901393D01*
X1050391Y1887169D01*
X1052677Y1873148D01*
X1056741Y1859584D01*
X1062482Y1846580D01*
X1069848Y1834438D01*
X1078687Y1823262D01*
X1088898Y1813407D01*
X1100277Y1804974D01*
X1112316Y1798167D01*
X1115060Y1795881D01*
X1116838Y1792833D01*
X1117498Y1789328D01*
X1117498Y1150670D01*
X1116990Y1147622D01*
X1115618Y1144778D01*
X1113383Y1142593D01*
X1109878Y1139850D01*
X1100836Y1130909D01*
X1093216Y1120698D01*
X1087069Y1109522D01*
X1082649Y1097483D01*
X1079906Y1085088D01*
X1078992Y1071981D01*
X1078992Y996543D01*
X1079906Y983437D01*
X1082649Y970940D01*
X1087069Y959053D01*
X1093216Y947826D01*
X1100836Y937615D01*
X1109878Y928624D01*
X1120089Y921003D01*
X1131265Y914806D01*
X1143203Y910336D01*
X1155649Y907694D01*
G37*
G36*
X-1333500Y910234D02*
G01*
X-1320800Y911098D01*
X-1308354Y913790D01*
X-1296466Y918210D01*
X-1285290Y924356D01*
X-1275080Y931976D01*
X-1266088Y940968D01*
X-1258468Y951179D01*
X-1252372Y962355D01*
X-1247952Y974242D01*
X-1245209Y986688D01*
X-1244346Y999388D01*
X-1245209Y1012088D01*
X-1247952Y1024534D01*
X-1252372Y1036370D01*
X-1258468Y1047546D01*
X-1266088Y1057757D01*
X-1275080Y1066800D01*
X-1285290Y1074369D01*
X-1296466Y1080516D01*
X-1308354Y1084935D01*
X-1320800Y1087628D01*
X-1333500Y1088542D01*
X-1346200Y1087628D01*
X-1358646Y1084935D01*
X-1370533Y1080516D01*
X-1381709Y1074369D01*
X-1391920Y1066800D01*
X-1400911Y1057757D01*
X-1408531Y1047546D01*
X-1414627Y1036370D01*
X-1419047Y1024534D01*
X-1421790Y1012088D01*
X-1422654Y999388D01*
X-1421790Y986688D01*
X-1419047Y974242D01*
X-1414627Y962355D01*
X-1408531Y951179D01*
X-1400911Y940968D01*
X-1391920Y931976D01*
X-1381709Y924356D01*
X-1370533Y918210D01*
X-1358646Y913790D01*
X-1346200Y911098D01*
G37*
G36*
X-1587500Y910234D02*
G01*
X-1574800Y911098D01*
X-1562354Y913790D01*
X-1550466Y918210D01*
X-1539290Y924356D01*
X-1529080Y931976D01*
X-1520088Y940968D01*
X-1512468Y951179D01*
X-1506372Y962355D01*
X-1501952Y974242D01*
X-1499209Y986688D01*
X-1498346Y999388D01*
X-1499209Y1012088D01*
X-1501952Y1024534D01*
X-1506372Y1036370D01*
X-1512468Y1047546D01*
X-1520088Y1057757D01*
X-1529080Y1066800D01*
X-1539290Y1074369D01*
X-1550466Y1080516D01*
X-1562354Y1084935D01*
X-1574800Y1087628D01*
X-1587500Y1088542D01*
X-1600200Y1087628D01*
X-1612646Y1084935D01*
X-1624533Y1080516D01*
X-1635709Y1074369D01*
X-1645920Y1066800D01*
X-1654911Y1057757D01*
X-1662531Y1047546D01*
X-1668627Y1036370D01*
X-1673047Y1024534D01*
X-1675790Y1012088D01*
X-1676654Y999388D01*
X-1675790Y986688D01*
X-1673047Y974242D01*
X-1668627Y962355D01*
X-1662531Y951179D01*
X-1654911Y940968D01*
X-1645920Y931976D01*
X-1635709Y924356D01*
X-1624533Y918210D01*
X-1612646Y913790D01*
X-1600200Y911098D01*
G37*
G36*
X-1079500Y910234D02*
G01*
X-1066800Y911098D01*
X-1054354Y913790D01*
X-1042466Y918210D01*
X-1031290Y924356D01*
X-1021080Y931976D01*
X-1012088Y940968D01*
X-1004468Y951179D01*
X-998372Y962355D01*
X-993952Y974242D01*
X-991209Y986688D01*
X-990346Y999388D01*
X-991209Y1012088D01*
X-993952Y1024534D01*
X-998372Y1036370D01*
X-1004468Y1047546D01*
X-1012088Y1057757D01*
X-1021080Y1066800D01*
X-1031290Y1074369D01*
X-1042466Y1080516D01*
X-1054354Y1084935D01*
X-1066800Y1087628D01*
X-1079500Y1088542D01*
X-1092200Y1087628D01*
X-1104646Y1084935D01*
X-1116533Y1080516D01*
X-1127709Y1074369D01*
X-1137920Y1066800D01*
X-1146911Y1057757D01*
X-1154531Y1047546D01*
X-1160627Y1036370D01*
X-1165047Y1024534D01*
X-1167790Y1012088D01*
X-1168654Y999388D01*
X-1167790Y986688D01*
X-1165047Y974242D01*
X-1160627Y962355D01*
X-1154531Y951179D01*
X-1146911Y940968D01*
X-1137920Y931976D01*
X-1127709Y924356D01*
X-1116533Y918210D01*
X-1104646Y913790D01*
X-1092200Y911098D01*
G37*
G36*
X2628900Y995680D02*
G01*
X2643276Y996594D01*
X2657449Y999236D01*
X2671165Y1003706D01*
X2684221Y1009903D01*
X2696362Y1017625D01*
X2707487Y1026820D01*
X2717342Y1037285D01*
X2725826Y1048969D01*
X2732786Y1061618D01*
X2738069Y1074978D01*
X2741676Y1088999D01*
X2743454Y1103223D01*
X2743454Y1117701D01*
X2741676Y1131976D01*
X2738069Y1145946D01*
X2732786Y1159357D01*
X2725826Y1172006D01*
X2717342Y1183640D01*
X2707487Y1194104D01*
X2696362Y1203350D01*
X2684221Y1211072D01*
X2671165Y1217218D01*
X2657449Y1221689D01*
X2643276Y1224330D01*
X2628900Y1225296D01*
X2614523Y1224330D01*
X2600350Y1221689D01*
X2586634Y1217218D01*
X2573578Y1211072D01*
X2561437Y1203350D01*
X2550312Y1194104D01*
X2540457Y1183640D01*
X2531973Y1172006D01*
X2525014Y1159357D01*
X2519730Y1145946D01*
X2516124Y1131976D01*
X2514346Y1117701D01*
X2514346Y1103223D01*
X2516124Y1088999D01*
X2519730Y1074978D01*
X2525014Y1061618D01*
X2531973Y1048969D01*
X2540457Y1037285D01*
X2550312Y1026820D01*
X2561437Y1017625D01*
X2573578Y1009903D01*
X2586634Y1003706D01*
X2600350Y999236D01*
X2614523Y996594D01*
G37*
G36*
X-2197100Y1122680D02*
G01*
X-2182723Y1123594D01*
X-2168550Y1126236D01*
X-2154834Y1130706D01*
X-2141778Y1136904D01*
X-2129637Y1144625D01*
X-2118512Y1153820D01*
X-2108657Y1164285D01*
X-2100173Y1175969D01*
X-2093214Y1188618D01*
X-2087930Y1201978D01*
X-2084324Y1215999D01*
X-2082546Y1230223D01*
X-2082546Y1244701D01*
X-2084324Y1258976D01*
X-2087930Y1272946D01*
X-2093214Y1286357D01*
X-2100173Y1299006D01*
X-2108657Y1310640D01*
X-2118512Y1321104D01*
X-2129637Y1330350D01*
X-2141778Y1338072D01*
X-2154834Y1344218D01*
X-2168550Y1348689D01*
X-2182723Y1351330D01*
X-2197100Y1352296D01*
X-2211476Y1351330D01*
X-2225649Y1348689D01*
X-2239365Y1344218D01*
X-2252421Y1338072D01*
X-2264562Y1330350D01*
X-2275687Y1321104D01*
X-2285542Y1310640D01*
X-2294026Y1299006D01*
X-2300986Y1286357D01*
X-2306269Y1272946D01*
X-2309876Y1258976D01*
X-2311654Y1244701D01*
X-2311654Y1230223D01*
X-2309876Y1215999D01*
X-2306269Y1201978D01*
X-2300986Y1188618D01*
X-2294026Y1175969D01*
X-2285542Y1164285D01*
X-2275687Y1153820D01*
X-2264562Y1144625D01*
X-2252421Y1136904D01*
X-2239365Y1130706D01*
X-2225649Y1126236D01*
X-2211476Y1123594D01*
G37*
G36*
X1587855Y1236980D02*
G01*
X1663344Y1236980D01*
X1676400Y1237894D01*
X1688896Y1240586D01*
X1700834Y1245108D01*
X1712010Y1251204D01*
X1722221Y1258824D01*
X1731264Y1267815D01*
X1733905Y1271371D01*
X1736140Y1273606D01*
X1738934Y1274978D01*
X1742033Y1275486D01*
X1836572Y1275486D01*
X1841246Y1275638D01*
X1845614Y1276197D01*
X1849983Y1277162D01*
X1854200Y1278534D01*
X1858314Y1280261D01*
X1862226Y1282293D01*
X1865985Y1284681D01*
X1869490Y1287322D01*
X1872945Y1290523D01*
X1912518Y1330147D01*
X1915414Y1332179D01*
X1918868Y1333093D01*
X1936292Y1330807D01*
X1949907Y1330807D01*
X1963420Y1332636D01*
X1976577Y1336192D01*
X1989124Y1341577D01*
X2000859Y1348486D01*
X2011578Y1356969D01*
X2021078Y1366774D01*
X2029155Y1377696D01*
X2035708Y1389735D01*
X2040585Y1402435D01*
X2043785Y1415694D01*
X2045106Y1429258D01*
X2044649Y1442923D01*
X2042769Y1454302D01*
X2042718Y1457452D01*
X2043684Y1460601D01*
X2045563Y1463192D01*
X2296464Y1714042D01*
X2299614Y1717497D01*
X2302306Y1721002D01*
X2304694Y1724761D01*
X2306726Y1728673D01*
X2308453Y1732788D01*
X2309774Y1737004D01*
X2310739Y1741373D01*
X2311298Y1745742D01*
X2311501Y1750415D01*
X2311501Y1922830D01*
X2312111Y1926234D01*
X2313838Y1929282D01*
X2316480Y1931619D01*
X2318359Y1932686D01*
X2329078Y1941169D01*
X2338578Y1950974D01*
X2346655Y1961896D01*
X2353208Y1973935D01*
X2358085Y1986635D01*
X2361285Y1999894D01*
X2362606Y2013457D01*
X2362149Y2027123D01*
X2359914Y2040534D01*
X2355850Y2053589D01*
X2350109Y2065934D01*
X2342794Y2077466D01*
X2334006Y2087880D01*
X2323846Y2097024D01*
X2312619Y2104694D01*
X2300478Y2110892D01*
X2287574Y2115312D01*
X2274214Y2118055D01*
X2260600Y2118969D01*
X2246985Y2118055D01*
X2233625Y2115312D01*
X2220722Y2110892D01*
X2208580Y2104694D01*
X2197354Y2097024D01*
X2187194Y2087880D01*
X2178405Y2077466D01*
X2171090Y2065934D01*
X2165350Y2053589D01*
X2161286Y2040534D01*
X2159050Y2027123D01*
X2158593Y2013457D01*
X2159914Y1999894D01*
X2163114Y1986635D01*
X2167991Y1973935D01*
X2174544Y1961896D01*
X2182622Y1950974D01*
X2192121Y1941169D01*
X2202840Y1932686D01*
X2204720Y1931619D01*
X2207361Y1929282D01*
X2209088Y1926234D01*
X2209698Y1922830D01*
X2209698Y1775460D01*
X2208936Y1771548D01*
X2206701Y1768297D01*
X1973478Y1535023D01*
X1970786Y1533093D01*
X1967636Y1532128D01*
X1964283Y1532331D01*
X1956714Y1533855D01*
X1943100Y1534769D01*
X1929485Y1533855D01*
X1916125Y1531112D01*
X1903222Y1526692D01*
X1891080Y1520494D01*
X1879854Y1512824D01*
X1869693Y1503680D01*
X1860905Y1493266D01*
X1853590Y1481734D01*
X1847850Y1469390D01*
X1843786Y1456334D01*
X1841550Y1442923D01*
X1841093Y1429258D01*
X1842414Y1415694D01*
X1843379Y1411782D01*
X1843582Y1408379D01*
X1842668Y1405077D01*
X1840687Y1402232D01*
X1818690Y1380236D01*
X1815388Y1378051D01*
X1811477Y1377238D01*
X1742033Y1377238D01*
X1738934Y1377746D01*
X1736140Y1379169D01*
X1733905Y1381353D01*
X1731264Y1384909D01*
X1722221Y1393901D01*
X1712010Y1401572D01*
X1700834Y1407617D01*
X1688896Y1412138D01*
X1676400Y1414830D01*
X1663344Y1415796D01*
X1587855Y1415796D01*
X1574800Y1414830D01*
X1562303Y1412138D01*
X1550365Y1407617D01*
X1539189Y1401572D01*
X1528978Y1393901D01*
X1519936Y1384909D01*
X1512316Y1374698D01*
X1506220Y1363522D01*
X1501749Y1351584D01*
X1499006Y1339088D01*
X1498142Y1326388D01*
X1499006Y1313688D01*
X1501749Y1301140D01*
X1506220Y1289253D01*
X1512316Y1278077D01*
X1519936Y1267815D01*
X1528978Y1258824D01*
X1539189Y1251204D01*
X1550365Y1245108D01*
X1562303Y1240586D01*
X1574800Y1237894D01*
G37*
G36*
X2628900Y1249680D02*
G01*
X2643276Y1250594D01*
X2657449Y1253236D01*
X2671165Y1257706D01*
X2684221Y1263904D01*
X2696362Y1271625D01*
X2707487Y1280820D01*
X2717342Y1291285D01*
X2725826Y1302969D01*
X2732786Y1315618D01*
X2738069Y1328978D01*
X2741676Y1342999D01*
X2743454Y1357223D01*
X2743454Y1371701D01*
X2741676Y1385976D01*
X2738069Y1399946D01*
X2732786Y1413357D01*
X2725826Y1426006D01*
X2717342Y1437640D01*
X2707487Y1448104D01*
X2696362Y1457350D01*
X2684221Y1465072D01*
X2671165Y1471218D01*
X2657449Y1475689D01*
X2643276Y1478330D01*
X2628900Y1479296D01*
X2614523Y1478330D01*
X2600350Y1475689D01*
X2586634Y1471218D01*
X2573578Y1465072D01*
X2561437Y1457350D01*
X2550312Y1448104D01*
X2540457Y1437640D01*
X2531973Y1426006D01*
X2529027Y1420672D01*
X2526792Y1417828D01*
X2523693Y1416050D01*
X2520137Y1415338D01*
X2350973Y1415338D01*
X2346706Y1416304D01*
X2343200Y1418996D01*
X2334006Y1429918D01*
X2323846Y1439062D01*
X2312619Y1446733D01*
X2300478Y1452930D01*
X2287574Y1457350D01*
X2274214Y1460093D01*
X2260600Y1461008D01*
X2246985Y1460093D01*
X2233625Y1457350D01*
X2220722Y1452930D01*
X2208580Y1446733D01*
X2197354Y1439062D01*
X2187194Y1429918D01*
X2178405Y1419504D01*
X2171090Y1407972D01*
X2165350Y1395628D01*
X2161286Y1382572D01*
X2159050Y1369161D01*
X2158593Y1355547D01*
X2159914Y1341932D01*
X2163114Y1328674D01*
X2167991Y1315974D01*
X2174544Y1303934D01*
X2182622Y1293012D01*
X2192121Y1283208D01*
X2202840Y1274724D01*
X2214575Y1267815D01*
X2227122Y1262430D01*
X2240280Y1258874D01*
X2253792Y1257046D01*
X2267407Y1257046D01*
X2280920Y1258874D01*
X2294077Y1262430D01*
X2306624Y1267815D01*
X2318359Y1274724D01*
X2329078Y1283208D01*
X2338578Y1293012D01*
X2346655Y1303934D01*
X2348992Y1308303D01*
X2351278Y1311097D01*
X2354376Y1312875D01*
X2357932Y1313586D01*
X2520137Y1313586D01*
X2523693Y1312875D01*
X2526792Y1311097D01*
X2529027Y1308303D01*
X2531973Y1302969D01*
X2540457Y1291285D01*
X2550312Y1280820D01*
X2561437Y1271625D01*
X2573578Y1263904D01*
X2586634Y1257706D01*
X2600350Y1253236D01*
X2614523Y1250594D01*
G37*
G36*
X-2197100Y1376680D02*
G01*
X-2182723Y1377594D01*
X-2168550Y1380236D01*
X-2154834Y1384706D01*
X-2141778Y1390904D01*
X-2129637Y1398625D01*
X-2118512Y1407820D01*
X-2108657Y1418285D01*
X-2100173Y1429969D01*
X-2093214Y1442618D01*
X-2087930Y1455978D01*
X-2084324Y1469999D01*
X-2082546Y1484223D01*
X-2082546Y1498701D01*
X-2084324Y1512976D01*
X-2087930Y1526946D01*
X-2093214Y1540357D01*
X-2100173Y1553006D01*
X-2108657Y1564640D01*
X-2118512Y1575104D01*
X-2129637Y1584350D01*
X-2141778Y1592072D01*
X-2154834Y1598218D01*
X-2168550Y1602689D01*
X-2182723Y1605330D01*
X-2197100Y1606296D01*
X-2211476Y1605330D01*
X-2225649Y1602689D01*
X-2239365Y1598218D01*
X-2252421Y1592072D01*
X-2264562Y1584350D01*
X-2275687Y1575104D01*
X-2285542Y1564640D01*
X-2294026Y1553006D01*
X-2300986Y1540357D01*
X-2306269Y1526946D01*
X-2309876Y1512976D01*
X-2311654Y1498701D01*
X-2311654Y1484223D01*
X-2309876Y1469999D01*
X-2306269Y1455978D01*
X-2300986Y1442618D01*
X-2294026Y1429969D01*
X-2285542Y1418285D01*
X-2275687Y1407820D01*
X-2264562Y1398625D01*
X-2252421Y1390904D01*
X-2239365Y1384706D01*
X-2225649Y1380236D01*
X-2211476Y1377594D01*
G37*
G36*
X1568450Y1493266D02*
G01*
X1568450Y1542288D01*
X1506728Y1542288D01*
X1512316Y1532026D01*
X1519936Y1521815D01*
X1528978Y1512824D01*
X1539189Y1505153D01*
X1550365Y1499006D01*
X1562303Y1494536D01*
G37*
G36*
X1682750Y1493266D02*
G01*
X1688896Y1494536D01*
X1700834Y1499006D01*
X1712010Y1505153D01*
X1722221Y1512824D01*
X1731264Y1521815D01*
X1738884Y1532026D01*
X1744472Y1542288D01*
X1682750Y1542288D01*
G37*
G36*
X2628900Y1503629D02*
G01*
X2643276Y1504543D01*
X2657449Y1507185D01*
X2671165Y1511655D01*
X2684170Y1517853D01*
X2696362Y1525574D01*
X2707487Y1534769D01*
X2717342Y1545234D01*
X2725826Y1556918D01*
X2732735Y1569567D01*
X2738069Y1582928D01*
X2741625Y1596898D01*
X2743454Y1611172D01*
X2743454Y1625650D01*
X2741625Y1639925D01*
X2738069Y1653844D01*
X2732735Y1667306D01*
X2725826Y1679956D01*
X2717342Y1691589D01*
X2707487Y1702054D01*
X2696362Y1711299D01*
X2684170Y1719021D01*
X2671165Y1725117D01*
X2657449Y1729536D01*
X2643276Y1732330D01*
X2628900Y1733194D01*
X2614472Y1732330D01*
X2600350Y1729536D01*
X2586634Y1725117D01*
X2573578Y1719021D01*
X2561437Y1711299D01*
X2550312Y1702054D01*
X2540457Y1691589D01*
X2531973Y1679956D01*
X2525014Y1667306D01*
X2519730Y1653844D01*
X2516124Y1639925D01*
X2514346Y1625650D01*
X2514346Y1611172D01*
X2516124Y1596898D01*
X2519730Y1582928D01*
X2525014Y1569567D01*
X2531973Y1556918D01*
X2540457Y1545234D01*
X2550312Y1534769D01*
X2561437Y1525574D01*
X2573578Y1517853D01*
X2586634Y1511655D01*
X2600350Y1507185D01*
X2614472Y1504543D01*
G37*
G36*
X1506728Y1618488D02*
G01*
X1568450Y1618488D01*
X1568450Y1667408D01*
X1562303Y1666138D01*
X1550365Y1661617D01*
X1539189Y1655572D01*
X1528978Y1647850D01*
X1519936Y1638909D01*
X1512316Y1628698D01*
G37*
G36*
X1682750Y1618488D02*
G01*
X1744472Y1618488D01*
X1738884Y1628698D01*
X1731264Y1638909D01*
X1722221Y1647850D01*
X1712010Y1655572D01*
X1700834Y1661617D01*
X1688896Y1666138D01*
X1682750Y1667408D01*
G37*
G36*
X-1625498Y1699717D02*
G01*
X-1625498Y1742389D01*
X-1668119Y1742389D01*
X-1662531Y1732127D01*
X-1654911Y1721967D01*
X-1645920Y1712925D01*
X-1635709Y1705356D01*
G37*
G36*
X-1549501Y1699717D02*
G01*
X-1539290Y1705356D01*
X-1529080Y1712925D01*
X-1520088Y1721967D01*
X-1512468Y1732127D01*
X-1506880Y1742389D01*
X-1549501Y1742389D01*
G37*
G36*
X2628900Y1757680D02*
G01*
X2643276Y1758594D01*
X2657449Y1761236D01*
X2671165Y1765706D01*
X2684221Y1771904D01*
X2696362Y1779625D01*
X2707487Y1788820D01*
X2717342Y1799285D01*
X2725826Y1810969D01*
X2732786Y1823618D01*
X2738069Y1836978D01*
X2741676Y1850999D01*
X2743454Y1865223D01*
X2743454Y1879701D01*
X2741676Y1893976D01*
X2738069Y1907946D01*
X2732786Y1921357D01*
X2725826Y1934006D01*
X2717342Y1945639D01*
X2707487Y1956104D01*
X2696362Y1965350D01*
X2684221Y1973072D01*
X2671165Y1979218D01*
X2657449Y1983689D01*
X2643276Y1986330D01*
X2628900Y1987296D01*
X2614523Y1986330D01*
X2600350Y1983689D01*
X2586634Y1979218D01*
X2573578Y1973072D01*
X2561437Y1965350D01*
X2550312Y1956104D01*
X2540457Y1945639D01*
X2531973Y1934006D01*
X2525014Y1921357D01*
X2519730Y1907946D01*
X2516124Y1893976D01*
X2514346Y1879701D01*
X2514346Y1865223D01*
X2516124Y1850999D01*
X2519730Y1836978D01*
X2525014Y1823618D01*
X2531973Y1810969D01*
X2540457Y1799285D01*
X2550312Y1788820D01*
X2561437Y1779625D01*
X2573578Y1771904D01*
X2586634Y1765706D01*
X2600350Y1761236D01*
X2614523Y1758594D01*
G37*
G36*
X691438Y1786940D02*
G01*
X726998Y1786940D01*
X733348Y1787601D01*
X738784Y1789531D01*
X743712Y1792681D01*
X747776Y1796745D01*
X750874Y1801672D01*
X752805Y1807057D01*
X753516Y1813407D01*
X753516Y1849018D01*
X691438Y1849018D01*
G37*
G36*
X558190Y1786940D02*
G01*
X593750Y1786940D01*
X593750Y1849018D01*
X531672Y1849018D01*
X531672Y1813407D01*
X532384Y1807057D01*
X534314Y1801672D01*
X537413Y1796745D01*
X541477Y1792681D01*
X546404Y1789531D01*
X551840Y1787601D01*
G37*
G36*
X-1668119Y1818335D02*
G01*
X-1625498Y1818335D01*
X-1625498Y1860905D01*
X-1635709Y1855368D01*
X-1645920Y1847697D01*
X-1654911Y1838756D01*
X-1662531Y1828546D01*
G37*
G36*
X-1549501Y1818335D02*
G01*
X-1506880Y1818335D01*
X-1512468Y1828546D01*
X-1520088Y1838756D01*
X-1529080Y1847697D01*
X-1539290Y1855368D01*
X-1549501Y1860905D01*
G37*
G36*
X691438Y1946706D02*
G01*
X753516Y1946706D01*
X753516Y1982317D01*
X752805Y1988616D01*
X750874Y1994103D01*
X747776Y1998980D01*
X743712Y2003043D01*
X738784Y2006142D01*
X733348Y2008073D01*
X726998Y2008784D01*
X691438Y2008784D01*
G37*
G36*
X531672Y1946706D02*
G01*
X593750Y1946706D01*
X593750Y2008784D01*
X558190Y2008784D01*
X551840Y2008073D01*
X546404Y2006142D01*
X541477Y2003043D01*
X537413Y1998980D01*
X534314Y1994103D01*
X532384Y1988616D01*
X531672Y1982317D01*
G37*
G36*
X2628900Y2011680D02*
G01*
X2643276Y2012594D01*
X2657449Y2015236D01*
X2671165Y2019706D01*
X2684221Y2025904D01*
X2696362Y2033625D01*
X2707487Y2042820D01*
X2717342Y2053285D01*
X2725826Y2064969D01*
X2732786Y2077618D01*
X2738069Y2090978D01*
X2741676Y2104999D01*
X2743454Y2119223D01*
X2743454Y2133701D01*
X2741676Y2147976D01*
X2738069Y2161946D01*
X2732786Y2175357D01*
X2725826Y2188006D01*
X2717342Y2199640D01*
X2707487Y2210104D01*
X2696362Y2219350D01*
X2684221Y2227072D01*
X2671165Y2233218D01*
X2657449Y2237689D01*
X2643276Y2240330D01*
X2628900Y2241296D01*
X2614523Y2240330D01*
X2600350Y2237689D01*
X2586634Y2233218D01*
X2573578Y2227072D01*
X2561437Y2219350D01*
X2550312Y2210104D01*
X2540457Y2199640D01*
X2531973Y2188006D01*
X2525014Y2175357D01*
X2519730Y2161946D01*
X2516124Y2147976D01*
X2514346Y2133701D01*
X2514346Y2119223D01*
X2516124Y2104999D01*
X2519730Y2090978D01*
X2525014Y2077618D01*
X2531973Y2064969D01*
X2540457Y2053285D01*
X2550312Y2042820D01*
X2561437Y2033625D01*
X2573578Y2025904D01*
X2586634Y2019706D01*
X2600350Y2015236D01*
X2614523Y2012594D01*
G37*
G36*
X-1886407Y2037283D02*
G01*
X-1872792Y2037283D01*
X-1859280Y2039112D01*
X-1846122Y2042769D01*
X-1833575Y2048002D01*
X-1821840Y2055012D01*
X-1811121Y2063496D01*
X-1801622Y2073300D01*
X-1793544Y2084273D01*
X-1786991Y2096211D01*
X-1782114Y2108962D01*
X-1781149Y2112975D01*
X-1779168Y2117039D01*
X-1775612Y2119782D01*
X-1771243Y2120747D01*
X-1516532Y2120747D01*
X-1513433Y2120290D01*
X-1510588Y2118918D01*
X-1508353Y2116683D01*
X-1500378Y2105812D01*
X-1490878Y2096007D01*
X-1480159Y2087524D01*
X-1468424Y2080615D01*
X-1455877Y2075230D01*
X-1442720Y2071674D01*
X-1429207Y2069846D01*
X-1415592Y2069846D01*
X-1402080Y2071674D01*
X-1388922Y2075230D01*
X-1376375Y2080615D01*
X-1364640Y2087524D01*
X-1353921Y2096007D01*
X-1344422Y2105812D01*
X-1336344Y2116734D01*
X-1329791Y2128774D01*
X-1324914Y2141474D01*
X-1321714Y2154732D01*
X-1320393Y2168347D01*
X-1320850Y2181961D01*
X-1323086Y2195423D01*
X-1327150Y2208428D01*
X-1332890Y2220823D01*
X-1340205Y2232304D01*
X-1348994Y2242718D01*
X-1359154Y2251862D01*
X-1370380Y2259533D01*
X-1382522Y2265730D01*
X-1395425Y2270150D01*
X-1408785Y2272893D01*
X-1422400Y2273808D01*
X-1436014Y2272893D01*
X-1449374Y2270150D01*
X-1462278Y2265730D01*
X-1474419Y2259533D01*
X-1485646Y2251862D01*
X-1495806Y2242718D01*
X-1504594Y2232304D01*
X-1507744Y2227275D01*
X-1510030Y2224786D01*
X-1512976Y2223211D01*
X-1516329Y2222652D01*
X-1818030Y2222652D01*
X-1821027Y2223109D01*
X-1823770Y2224430D01*
X-1827580Y2227021D01*
X-1839722Y2233117D01*
X-1852625Y2237638D01*
X-1865985Y2240330D01*
X-1879600Y2241296D01*
X-1893214Y2240330D01*
X-1906574Y2237638D01*
X-1919478Y2233117D01*
X-1931619Y2227021D01*
X-1942846Y2219299D01*
X-1953006Y2210104D01*
X-1961794Y2199741D01*
X-1969109Y2188210D01*
X-1974850Y2175865D01*
X-1978914Y2162810D01*
X-1981149Y2149398D01*
X-1981606Y2135784D01*
X-1980285Y2122170D01*
X-1977085Y2108962D01*
X-1972208Y2096211D01*
X-1965655Y2084273D01*
X-1957578Y2073300D01*
X-1948078Y2063496D01*
X-1937359Y2055012D01*
X-1925624Y2048002D01*
X-1913077Y2042769D01*
X-1899920Y2039112D01*
G37*
G36*
X2628900Y2265680D02*
G01*
X2643276Y2266594D01*
X2657449Y2269236D01*
X2671165Y2273706D01*
X2684221Y2279904D01*
X2696362Y2287625D01*
X2707487Y2296820D01*
X2717342Y2307285D01*
X2725826Y2318969D01*
X2732786Y2331618D01*
X2738069Y2344978D01*
X2741676Y2358999D01*
X2743454Y2373223D01*
X2743454Y2387701D01*
X2741676Y2401976D01*
X2738069Y2415946D01*
X2732786Y2429357D01*
X2725826Y2442006D01*
X2717342Y2453640D01*
X2707487Y2464104D01*
X2696362Y2473350D01*
X2684221Y2481072D01*
X2671165Y2487218D01*
X2657449Y2491689D01*
X2643276Y2494330D01*
X2628900Y2495296D01*
X2614523Y2494330D01*
X2600350Y2491689D01*
X2586634Y2487218D01*
X2573578Y2481072D01*
X2561437Y2473350D01*
X2550312Y2464104D01*
X2540457Y2453640D01*
X2531973Y2442006D01*
X2525014Y2429357D01*
X2519730Y2415946D01*
X2516124Y2401976D01*
X2514346Y2387701D01*
X2514346Y2373223D01*
X2516124Y2358999D01*
X2519730Y2344978D01*
X2525014Y2331618D01*
X2531973Y2318969D01*
X2540457Y2307285D01*
X2550312Y2296820D01*
X2561437Y2287625D01*
X2573578Y2279904D01*
X2586634Y2273706D01*
X2600350Y2269236D01*
X2614523Y2266594D01*
G37*
G36*
X-1013764Y2380030D02*
G01*
X-1000201Y2381402D01*
X-986942Y2384552D01*
X-974242Y2389428D01*
X-962253Y2396032D01*
X-951280Y2404059D01*
X-941476Y2413609D01*
X-933043Y2424328D01*
X-926084Y2436063D01*
X-920750Y2448560D01*
X-917143Y2461717D01*
X-915365Y2475280D01*
X-915365Y2488895D01*
X-917143Y2502408D01*
X-920750Y2515565D01*
X-926084Y2528062D01*
X-933043Y2539796D01*
X-941476Y2550515D01*
X-951280Y2560066D01*
X-962253Y2568092D01*
X-974242Y2574696D01*
X-986942Y2579573D01*
X-1000201Y2582773D01*
X-1013764Y2584094D01*
X-1027430Y2583637D01*
X-1040841Y2581351D01*
X-1053896Y2577338D01*
X-1066241Y2571546D01*
X-1077772Y2564231D01*
X-1088186Y2555443D01*
X-1097330Y2545283D01*
X-1105052Y2534056D01*
X-1111199Y2521966D01*
X-1115669Y2509012D01*
X-1118362Y2495702D01*
X-1119276Y2482088D01*
X-1118362Y2468473D01*
X-1115669Y2455113D01*
X-1111199Y2442159D01*
X-1105052Y2430068D01*
X-1097330Y2418842D01*
X-1088186Y2408682D01*
X-1077772Y2399893D01*
X-1066241Y2392578D01*
X-1053896Y2386838D01*
X-1040841Y2382774D01*
X-1027430Y2380538D01*
G37*
G36*
X-1924050Y2707335D02*
G01*
X-1924050Y2754680D01*
X-1971395Y2754680D01*
X-1965655Y2744216D01*
X-1957578Y2733192D01*
X-1948078Y2723438D01*
X-1937359Y2715006D01*
X-1925624Y2708046D01*
G37*
G36*
X-1835150Y2707335D02*
G01*
X-1833575Y2708046D01*
X-1821840Y2715006D01*
X-1811121Y2723438D01*
X-1801622Y2733192D01*
X-1793544Y2744216D01*
X-1787804Y2754680D01*
X-1835150Y2754680D01*
G37*
G36*
X-1971243Y2843580D02*
G01*
X-1924050Y2843580D01*
X-1924050Y2890824D01*
X-1931619Y2887014D01*
X-1942846Y2879242D01*
X-1953006Y2870098D01*
X-1961794Y2859684D01*
X-1969109Y2848254D01*
G37*
G36*
X-1835150Y2843580D02*
G01*
X-1787956Y2843580D01*
X-1790090Y2848254D01*
X-1797405Y2859684D01*
X-1806244Y2870098D01*
X-1816354Y2879242D01*
X-1827580Y2887014D01*
X-1835150Y2890824D01*
G37*
G36*
X1758492Y2900527D02*
G01*
X1772107Y2900527D01*
X1785620Y2902305D01*
X1798777Y2905963D01*
X1811324Y2911297D01*
X1823059Y2918206D01*
X1833778Y2926638D01*
X1843278Y2936443D01*
X1851355Y2947466D01*
X1857908Y2959354D01*
X1862785Y2972104D01*
X1865985Y2985363D01*
X1867306Y2998927D01*
X1866849Y3012592D01*
X1864614Y3026054D01*
X1860550Y3039008D01*
X1854809Y3051454D01*
X1847494Y3062884D01*
X1838706Y3073298D01*
X1828546Y3082442D01*
X1823720Y3085846D01*
X1821332Y3088081D01*
X1819859Y3090976D01*
X1819300Y3094177D01*
X1819300Y3238804D01*
X1819808Y3241954D01*
X1821230Y3244748D01*
X1823466Y3247034D01*
X1834286Y3254959D01*
X1844090Y3264509D01*
X1852574Y3275228D01*
X1859534Y3286963D01*
X1864817Y3299460D01*
X1868424Y3312617D01*
X1870252Y3326180D01*
X1870252Y3339795D01*
X1868424Y3353308D01*
X1864817Y3366465D01*
X1859534Y3378962D01*
X1852574Y3390696D01*
X1844090Y3401415D01*
X1834286Y3410965D01*
X1823313Y3418992D01*
X1811375Y3425596D01*
X1798624Y3430473D01*
X1785366Y3433673D01*
X1771802Y3434994D01*
X1758188Y3434537D01*
X1744725Y3432251D01*
X1731721Y3428237D01*
X1719325Y3422446D01*
X1707845Y3415131D01*
X1697431Y3406343D01*
X1688287Y3396183D01*
X1680565Y3384956D01*
X1674418Y3372865D01*
X1669948Y3359912D01*
X1667205Y3346602D01*
X1666341Y3332987D01*
X1667205Y3319373D01*
X1669948Y3306013D01*
X1674418Y3293059D01*
X1680565Y3280968D01*
X1688287Y3269742D01*
X1697431Y3259582D01*
X1707845Y3250793D01*
X1712823Y3247593D01*
X1715312Y3245358D01*
X1716938Y3242411D01*
X1717497Y3239058D01*
X1717497Y3098444D01*
X1716989Y3095193D01*
X1715465Y3092297D01*
X1713077Y3090113D01*
X1702054Y3082442D01*
X1691893Y3073298D01*
X1683105Y3062884D01*
X1675790Y3051454D01*
X1670050Y3039008D01*
X1665986Y3026054D01*
X1663750Y3012592D01*
X1663293Y2998927D01*
X1664614Y2985363D01*
X1667814Y2972104D01*
X1672691Y2959354D01*
X1679244Y2947466D01*
X1687322Y2936443D01*
X1696821Y2926638D01*
X1707540Y2918206D01*
X1719275Y2911297D01*
X1731822Y2905963D01*
X1744980Y2902305D01*
G37*
G36*
X455930Y2900730D02*
G01*
X469493Y2902102D01*
X482752Y2905252D01*
X495452Y2910128D01*
X507441Y2916732D01*
X518414Y2924759D01*
X528218Y2934309D01*
X536651Y2945028D01*
X543610Y2956763D01*
X548944Y2969260D01*
X552551Y2982417D01*
X554380Y2995980D01*
X554380Y3009595D01*
X552551Y3023108D01*
X548944Y3036265D01*
X543610Y3048762D01*
X536651Y3060496D01*
X528218Y3071215D01*
X518414Y3080766D01*
X507441Y3088792D01*
X504596Y3090316D01*
X501802Y3092653D01*
X499973Y3095701D01*
X499313Y3099308D01*
X499313Y3238804D01*
X499821Y3241954D01*
X501243Y3244748D01*
X503428Y3247034D01*
X514299Y3254959D01*
X524103Y3264509D01*
X532587Y3275228D01*
X539496Y3286963D01*
X544830Y3299460D01*
X548436Y3312617D01*
X550265Y3326180D01*
X550265Y3339795D01*
X548436Y3353308D01*
X544830Y3366465D01*
X539496Y3378962D01*
X532587Y3390696D01*
X524103Y3401415D01*
X514299Y3410965D01*
X503326Y3418992D01*
X491388Y3425596D01*
X478637Y3430473D01*
X465378Y3433673D01*
X451815Y3434994D01*
X438200Y3434537D01*
X424738Y3432251D01*
X411734Y3428237D01*
X399338Y3422446D01*
X387858Y3415131D01*
X377444Y3406343D01*
X368300Y3396183D01*
X362813Y3388258D01*
X360578Y3385870D01*
X357682Y3384346D01*
X354431Y3383838D01*
X176885Y3383838D01*
X173228Y3384550D01*
X170027Y3386531D01*
X167792Y3389477D01*
X163626Y3397656D01*
X155905Y3408883D01*
X146761Y3418992D01*
X136347Y3427780D01*
X124866Y3435146D01*
X112522Y3440937D01*
X99466Y3444900D01*
X86004Y3447237D01*
X72390Y3447694D01*
X58826Y3446322D01*
X45567Y3443173D01*
X32816Y3438194D01*
X20878Y3431692D01*
X9906Y3423615D01*
X101Y3414115D01*
X-8331Y3403396D01*
X-15290Y3391662D01*
X-20624Y3379165D01*
X-24231Y3366008D01*
X-26060Y3352495D01*
X-26060Y3338829D01*
X-24231Y3325266D01*
X-20624Y3312109D01*
X-15290Y3299612D01*
X-8331Y3287877D01*
X101Y3277209D01*
X9906Y3267659D01*
X20878Y3259632D01*
X32816Y3253028D01*
X45567Y3248101D01*
X58826Y3245002D01*
X72390Y3243630D01*
X86004Y3244088D01*
X99466Y3246374D01*
X112522Y3250387D01*
X124866Y3256127D01*
X136347Y3263493D01*
X146761Y3272282D01*
X152603Y3278733D01*
X156006Y3281222D01*
X160172Y3282086D01*
X354431Y3282086D01*
X357682Y3281578D01*
X360578Y3280054D01*
X362813Y3277666D01*
X368300Y3269742D01*
X377444Y3259582D01*
X387858Y3250793D01*
X392785Y3247593D01*
X395325Y3245358D01*
X396951Y3242411D01*
X397510Y3239058D01*
X397510Y3094075D01*
X396951Y3090773D01*
X395325Y3087776D01*
X381508Y3076143D01*
X372364Y3065983D01*
X364642Y3054756D01*
X358495Y3042666D01*
X354025Y3029712D01*
X351332Y3016402D01*
X350418Y3002788D01*
X351332Y2989173D01*
X354025Y2975813D01*
X358495Y2962859D01*
X364642Y2950768D01*
X372364Y2939542D01*
X381508Y2929382D01*
X391922Y2920593D01*
X403453Y2913278D01*
X415798Y2907538D01*
X428853Y2903474D01*
X442264Y2901238D01*
G37*
G36*
X1154887Y2910992D02*
G01*
X1165352Y2916732D01*
X1176324Y2924759D01*
X1186129Y2934309D01*
X1194612Y2945028D01*
X1201521Y2956763D01*
X1202232Y2958338D01*
X1154887Y2958338D01*
G37*
G36*
X1065987Y2911094D02*
G01*
X1065987Y2958338D01*
X1018743Y2958338D01*
X1022603Y2950768D01*
X1030325Y2939440D01*
X1039469Y2929382D01*
X1049883Y2920593D01*
X1061364Y2913278D01*
G37*
G36*
X1018743Y3047238D02*
G01*
X1065987Y3047238D01*
X1065987Y3094431D01*
X1061364Y3092246D01*
X1049883Y3084931D01*
X1039469Y3076092D01*
X1030325Y3065983D01*
X1022603Y3054756D01*
G37*
G36*
X1154887Y3047238D02*
G01*
X1202232Y3047238D01*
X1201521Y3048762D01*
X1194612Y3060496D01*
X1186129Y3071215D01*
X1176324Y3080715D01*
X1165352Y3088792D01*
X1154887Y3094583D01*
G37*
G36*
X2472842Y3241192D02*
G01*
X2483307Y3246932D01*
X2494330Y3254959D01*
X2504135Y3264458D01*
X2512568Y3275177D01*
X2519527Y3286912D01*
X2520188Y3288487D01*
X2472842Y3288487D01*
G37*
G36*
X1152855Y3241192D02*
G01*
X1163320Y3246932D01*
X1174292Y3254959D01*
X1184097Y3264458D01*
X1192580Y3275177D01*
X1199540Y3286912D01*
X1200200Y3288487D01*
X1152855Y3288487D01*
G37*
G36*
X1063955Y3241243D02*
G01*
X1063955Y3288487D01*
X1016762Y3288487D01*
X1020571Y3280867D01*
X1028293Y3269640D01*
X1037437Y3259582D01*
X1047851Y3250793D01*
X1059332Y3243427D01*
G37*
G36*
X2383942Y3241243D02*
G01*
X2383942Y3288487D01*
X2336749Y3288487D01*
X2340559Y3280867D01*
X2348280Y3269640D01*
X2357424Y3259582D01*
X2367838Y3250793D01*
X2379319Y3243427D01*
G37*
G36*
X1016762Y3377387D02*
G01*
X1063955Y3377387D01*
X1063955Y3424631D01*
X1059332Y3422446D01*
X1047851Y3415080D01*
X1037437Y3406292D01*
X1028293Y3396183D01*
X1020571Y3384956D01*
G37*
G36*
X2336749Y3377387D02*
G01*
X2383942Y3377387D01*
X2383942Y3424631D01*
X2379319Y3422446D01*
X2367838Y3415080D01*
X2357424Y3406292D01*
X2348280Y3396183D01*
X2340559Y3384956D01*
G37*
G36*
X2472842Y3377387D02*
G01*
X2520188Y3377387D01*
X2519527Y3378962D01*
X2512568Y3390696D01*
X2504135Y3401415D01*
X2494330Y3410915D01*
X2483307Y3418992D01*
X2472842Y3424732D01*
G37*
G36*
X1152855Y3377387D02*
G01*
X1200200Y3377387D01*
X1199540Y3378962D01*
X1192580Y3390696D01*
X1184097Y3401415D01*
X1174292Y3410915D01*
X1163320Y3418992D01*
X1152855Y3424732D01*
G37*
G36*
X-1008735Y3987952D02*
G01*
X-951433Y3987952D01*
X-953516Y3992321D01*
X-961694Y4005224D01*
X-971346Y4017213D01*
X-982319Y4027881D01*
X-994511Y4037177D01*
X-1007719Y4045000D01*
X-1008735Y4045356D01*
G37*
G36*
X-1182217Y3987952D02*
G01*
X-1124915Y3987952D01*
X-1124915Y4045356D01*
X-1125880Y4045000D01*
X-1139088Y4037177D01*
X-1151280Y4027881D01*
X-1162304Y4017213D01*
X-1171956Y4005224D01*
X-1180134Y3992321D01*
G37*
G36*
X-1074470Y4054703D02*
G01*
X-1059129Y4054703D01*
X-1043889Y4056481D01*
X-1029004Y4060139D01*
X-1022400Y4062577D01*
X-1016965Y4063492D01*
X-1013968Y4065778D01*
X-1001014Y4072483D01*
X-988263Y4080967D01*
X-976680Y4091025D01*
X-966317Y4102354D01*
X-957376Y4114800D01*
X-949960Y4128262D01*
X-944219Y4142435D01*
X-940155Y4157167D01*
X-937920Y4172356D01*
X-937463Y4187698D01*
X-938834Y4202988D01*
X-941984Y4217974D01*
X-946912Y4232503D01*
X-953465Y4246372D01*
X-961644Y4259275D01*
X-971346Y4271213D01*
X-982319Y4281881D01*
X-994511Y4291228D01*
X-998219Y4293362D01*
X-1000861Y4295648D01*
X-1002588Y4298696D01*
X-1003198Y4302150D01*
X-1003198Y4361738D01*
X-1002436Y4365650D01*
X-1000201Y4368952D01*
X-794664Y4574489D01*
X-791413Y4576673D01*
X-787501Y4577486D01*
X-403961Y4577486D01*
X-400100Y4576673D01*
X-396798Y4574489D01*
X-394563Y4571187D01*
X-393801Y4567326D01*
X-393801Y4546650D01*
X-394462Y4543044D01*
X-396290Y4539996D01*
X-399084Y4537710D01*
X-404418Y4534763D01*
X-416051Y4526330D01*
X-426567Y4516475D01*
X-435762Y4505350D01*
X-443484Y4493158D01*
X-449630Y4480153D01*
X-454101Y4466386D01*
X-456793Y4452213D01*
X-457708Y4437888D01*
X-456793Y4423511D01*
X-454101Y4409338D01*
X-449630Y4395571D01*
X-443484Y4382566D01*
X-435762Y4370425D01*
X-426567Y4359300D01*
X-416051Y4349445D01*
X-404418Y4340961D01*
X-391769Y4333951D01*
X-378358Y4328718D01*
X-364388Y4325112D01*
X-350113Y4323283D01*
X-335686Y4323283D01*
X-321411Y4325112D01*
X-307441Y4328718D01*
X-294030Y4333951D01*
X-281381Y4340961D01*
X-269748Y4349445D01*
X-259232Y4359300D01*
X-250037Y4370425D01*
X-242316Y4382566D01*
X-236169Y4395571D01*
X-231698Y4409338D01*
X-229006Y4423511D01*
X-228092Y4437888D01*
X-229006Y4452213D01*
X-231698Y4466386D01*
X-236169Y4480153D01*
X-242316Y4493158D01*
X-250037Y4505350D01*
X-259232Y4516475D01*
X-269748Y4526330D01*
X-281381Y4534763D01*
X-286715Y4537710D01*
X-289509Y4539996D01*
X-291338Y4543044D01*
X-291998Y4546650D01*
X-291998Y4627930D01*
X-292811Y4637227D01*
X-295097Y4645761D01*
X-298856Y4653838D01*
X-303936Y4661103D01*
X-310184Y4667351D01*
X-317449Y4672380D01*
X-325526Y4676190D01*
X-334060Y4678476D01*
X-343357Y4679238D01*
X-812596Y4679238D01*
X-817219Y4679086D01*
X-821639Y4678527D01*
X-825957Y4677562D01*
X-830224Y4676241D01*
X-834288Y4674463D01*
X-838250Y4672431D01*
X-842010Y4670044D01*
X-845515Y4667402D01*
X-848969Y4664202D01*
X-1089964Y4423257D01*
X-1093114Y4419803D01*
X-1095806Y4416298D01*
X-1098194Y4412538D01*
X-1100226Y4408576D01*
X-1101953Y4404512D01*
X-1103274Y4400245D01*
X-1104239Y4395927D01*
X-1104798Y4391507D01*
X-1105001Y4386884D01*
X-1105001Y4314799D01*
X-1105763Y4310938D01*
X-1107897Y4307636D01*
X-1111097Y4305503D01*
X-1125880Y4299000D01*
X-1139088Y4291228D01*
X-1151280Y4281881D01*
X-1162253Y4271213D01*
X-1171956Y4259275D01*
X-1180134Y4246372D01*
X-1186688Y4232503D01*
X-1191615Y4217974D01*
X-1194765Y4202988D01*
X-1196136Y4187698D01*
X-1195679Y4172356D01*
X-1193444Y4157167D01*
X-1189380Y4142435D01*
X-1183640Y4128262D01*
X-1176223Y4114800D01*
X-1167282Y4102354D01*
X-1156919Y4091025D01*
X-1145336Y4080967D01*
X-1132586Y4072483D01*
X-1119632Y4065778D01*
X-1116330Y4062882D01*
X-1115060Y4063237D01*
X-1111199Y4062577D01*
X-1104595Y4060139D01*
X-1089710Y4056481D01*
G37*

%LPD*%
D10*
X914400Y1034262D02*
G01*
X914400Y800100D01*
X1079500Y635000D01*
X1577238Y635000D01*
X1587500Y645261D01*
X2634741Y-4350537D02*
G01*
X2057400Y-4350537D01*
X2019300Y-4388637D01*
X2019300Y-4134637D02*
G01*
X2596641Y-4134637D01*
X2634741Y-4096537D01*
X2628900Y1364462D02*
G01*
X2266162Y1364462D01*
X2260600Y1358900D01*
X0Y12D02*
G01*
X660400Y660412D01*
X660400Y1034262D01*
X0Y0D02*
G01*
X1574850Y0D01*
X1587500Y-12649D01*
X-1066800Y3675862D02*
G01*
X-1790700Y3675862D01*
X-2489200Y2977362D01*
X-2489200Y5562D01*
X-2197100Y-286537D01*
X-825500Y1780362D02*
G01*
X-142900Y1780362D01*
X736600Y2659862D01*
X2692400Y2659862D01*
X2832100Y2520162D01*
X2832100Y-299237D01*
X2336800Y-794537D01*
X-2197100Y-794537D01*
X-596900Y4437862D02*
G01*
X-596900Y3891762D01*
X-825500Y3675862D01*
X-838200Y3675862D01*
X-1066800Y3675862D01*
X-342900Y4437862D02*
G01*
X-342900Y4628362D01*
X-812800Y4628362D01*
X-1054100Y4387062D01*
X-1054100Y4196562D01*
X-1066800Y4183862D01*
X-1422400Y2829664D02*
G01*
X-1422400Y2469362D01*
X-1092200Y2139162D01*
X-1092200Y1793062D01*
X-1079500Y1780362D01*
X-457200Y2482062D02*
G01*
X-457200Y2402662D01*
X-1079500Y1780362D01*
X448406Y3332962D02*
G01*
X448406Y3006849D01*
X452498Y3002762D01*
X448406Y3332962D02*
G01*
X88465Y3332962D01*
X75791Y3345637D01*
X-584200Y3345662D02*
G01*
X-1803400Y3345662D01*
X-2235200Y2913862D01*
X-2235200Y1923262D01*
X-1676400Y1364462D01*
X-1600200Y1364462D01*
X-1333500Y1631162D01*
X-1333500Y1780362D02*
G01*
X-1333500Y1631162D01*
X-1079500Y1377162D01*
X-719198Y1377162D01*
X0Y657964D01*
X-2197100Y475462D02*
G01*
X-1349400Y475462D01*
X-825500Y999363D01*
X1160785Y1897862D02*
G01*
X1320800Y1897862D01*
X1765300Y2342362D01*
X2006600Y-3728237D02*
G01*
X1758106Y-3728237D01*
X1745406Y-3740932D01*
X2634741Y-3842537D02*
G01*
X2374900Y-3842537D01*
X2006600Y-3474237D01*
X2628900Y-5112537D02*
G01*
X2489200Y-5112537D01*
X2019300Y-4642637D01*
X1943100Y1432674D02*
G01*
X1836788Y1326362D01*
X1625600Y1326362D01*
X0Y657974D02*
G01*
X-508000Y657974D01*
X0Y12D02*
G01*
X0Y-83337D01*
X-190500Y-273837D01*
X-2184400Y-273837D01*
X-2197100Y-286537D01*
X1587500Y645274D02*
G01*
X1625600Y683374D01*
X1625600Y1072362D01*
X2260600Y2016874D02*
G01*
X2260600Y1750174D01*
X1943100Y1432674D01*
X1160785Y1897862D02*
G01*
X1168387Y1890247D01*
X1168387Y1034244D01*
X901700Y1897862D02*
G01*
X914400Y1885162D01*
X914400Y1034262D01*
X1768401Y3332962D02*
G01*
X1768401Y3005455D01*
X1765300Y3002353D01*
X102816Y2482062D02*
G01*
X-598878Y1780362D01*
X-825500Y1780362D01*
X-1422400Y2171700D02*
G01*
X-1847062Y2171700D01*
X-1879600Y2139162D01*
D11*
G01*
X-1422400Y2171700D03*
G01*
X-1422400Y2829661D03*
G01*
X0Y0D03*
G01*
X0Y657961D03*
G01*
X-508000Y50D03*
G01*
X-508000Y657961D03*
G01*
X1110437Y3002762D03*
G01*
X452500Y3002762D03*
G01*
X2260600Y1358900D03*
G01*
X2260600Y2016861D03*
G01*
X1943100Y774750D03*
G01*
X1943100Y1432661D03*
G01*
X1587500Y-12649D03*
G01*
X1587500Y645261D03*
G01*
X2428392Y3332937D03*
G01*
X1768398Y3332962D03*
G01*
X1108405Y3332937D03*
G01*
X448411Y3332962D03*
G01*
X1745409Y-3740929D03*
G01*
X1087493Y-3740945D03*
D12*
G01*
X-1066800Y3675862D03*
D13*
G01*
X-1066800Y3929837D03*
D14*
G01*
X-1066800Y4183862D03*
D11*
G01*
X1765300Y2342362D03*
G01*
X1765300Y3002356D03*
G01*
X-1879600Y2139162D03*
G01*
X-1879600Y2799130D03*
G01*
X-584200Y3345662D03*
G01*
X75793Y3345637D03*
D15*
G01*
X-825500Y1780362D03*
D16*
G01*
X-1079500Y1780362D03*
G01*
X-1333500Y1780362D03*
D17*
G01*
X-1587500Y1780336D03*
D16*
G01*
X-1587500Y999363D03*
G01*
X-1333500Y999363D03*
G01*
X-1079500Y999363D03*
G01*
X-825500Y999363D03*
D11*
G01*
X102819Y2482062D03*
G01*
X-457200Y2482062D03*
G01*
X-1017193Y2482062D03*
D18*
G01*
X1625600Y1326362D03*
G01*
X1625600Y1580337D03*
G01*
X1625600Y1072362D03*
D19*
G01*
X914400Y1034262D03*
G01*
X1168400Y1034237D03*
G01*
X660400Y1034262D03*
D20*
G01*
X642594Y1897837D03*
D21*
G01*
X1160779Y1897862D03*
G01*
X901700Y1897862D03*
D22*
G01*
X2628894Y1618396D03*
G01*
X2628900Y1872462D03*
G01*
X2628900Y2126462D03*
G01*
X2628900Y2380462D03*
G01*
X2628900Y1364462D03*
G01*
X2628900Y1110462D03*
G01*
X2628900Y856462D03*
G01*
X2628900Y602462D03*
G01*
X2628900Y348462D03*
G01*
X2628900Y94462D03*
G01*
X-2197100Y1491462D03*
G01*
X-2197100Y1237462D03*
G01*
X-2197100Y983462D03*
G01*
X-2197100Y729462D03*
G01*
X-2197100Y475462D03*
G01*
X-2197100Y221462D03*
G01*
X-2197100Y-32562D03*
G01*
X-2197100Y-286537D03*
G01*
X-2197100Y-2318537D03*
G01*
X-2197100Y-2572537D03*
G01*
X-2197100Y-1810537D03*
G01*
X-2197100Y-2064537D03*
G01*
X-2197100Y-1556537D03*
G01*
X-2197100Y-1302537D03*
G01*
X-2197100Y-1048537D03*
G01*
X-2197100Y-794537D03*
G01*
X2634741Y-2572537D03*
G01*
X2634741Y-2826537D03*
G01*
X2634741Y-3080537D03*
G01*
X2634741Y-3334537D03*
G01*
X2634741Y-3588537D03*
G01*
X2634741Y-3842537D03*
G01*
X2634741Y-4096537D03*
D11*
G01*
X2634741Y-4350537D03*
D22*
G01*
X2006600Y-3474237D03*
G01*
X2006600Y-3728237D03*
D11*
G01*
X2019300Y-4896637D03*
D22*
G01*
X2019300Y-4642637D03*
G01*
X2019300Y-4388637D03*
G01*
X2019300Y-4134637D03*
G01*
X2628900Y-5112537D03*
G01*
X-342900Y4437862D03*
G01*
X-596900Y4437862D03*
M02*
